<svg width="20" height="20" viewBox="0 0 20 20" fill="none" xmlns="http://www.w3.org/2000/svg">
<path d="M4.81705 2.94205L2.31705 5.44205C2.19977 5.55932 2.04071 5.62521 1.87486 5.62521C1.70901 5.62521 1.54995 5.55932 1.43267 5.44205C1.3154 5.32477 1.24951 5.16571 1.24951 4.99986C1.24951 4.83401 1.3154 4.67495 1.43267 4.55767L3.93267 2.05767C4.04995 1.9404 4.20901 1.87451 4.37486 1.87451C4.54071 1.87451 4.69977 1.9404 4.81705 2.05767C4.93432 2.17495 5.00021 2.33401 5.00021 2.49986C5.00021 2.66571 4.93432 2.82477 4.81705 2.94205ZM18.567 4.55767L16.067 2.05767C15.9498 1.9404 15.7907 1.87451 15.6249 1.87451C15.459 1.87451 15.2999 1.9404 15.1827 2.05767C15.0654 2.17495 14.9995 2.33401 14.9995 2.49986C14.9995 2.66571 15.0654 2.82477 15.1827 2.94205L17.6827 5.44205C17.7407 5.50012 17.8097 5.54618 17.8855 5.57761C17.9614 5.60903 18.0427 5.62521 18.1249 5.62521C18.207 5.62521 18.2883 5.60903 18.3642 5.57761C18.44 5.54618 18.509 5.50012 18.567 5.44205C18.6251 5.38398 18.6712 5.31504 18.7026 5.23917C18.734 5.1633 18.7502 5.08198 18.7502 4.99986C18.7502 4.91774 18.734 4.83642 18.7026 4.76055C18.6712 4.68468 18.6251 4.61574 18.567 4.55767ZM17.4999 10.6249C17.4999 12.1082 17.06 13.5583 16.2359 14.7916C15.4118 16.025 14.2404 16.9863 12.87 17.554C11.4995 18.1216 9.99154 18.2701 8.53668 17.9807C7.08182 17.6914 5.74545 16.9771 4.69656 15.9282C3.64766 14.8793 2.93336 13.5429 2.64397 12.088C2.35458 10.6332 2.50311 9.12518 3.07076 7.75473C3.63842 6.38429 4.59971 5.21295 5.83308 4.38884C7.06645 3.56473 8.5165 3.12486 9.99986 3.12486C11.9883 3.12713 13.8946 3.91804 15.3006 5.32407C16.7067 6.7301 17.4976 8.63643 17.4999 10.6249ZM14.9999 10.6249C14.9999 10.4591 14.934 10.3001 14.8168 10.1829C14.6996 10.0657 14.5406 9.99986 14.3749 9.99986H10.6249V6.24986C10.6249 6.0841 10.559 5.92513 10.4418 5.80792C10.3246 5.69071 10.1656 5.62486 9.99986 5.62486C9.8341 5.62486 9.67513 5.69071 9.55792 5.80792C9.44071 5.92513 9.37486 6.0841 9.37486 6.24986V10.6249C9.37486 10.7906 9.44071 10.9496 9.55792 11.0668C9.67513 11.184 9.8341 11.2499 9.99986 11.2499H14.3749C14.5406 11.2499 14.6996 11.184 14.8168 11.0668C14.934 10.9496 14.9999 10.7906 14.9999 10.6249Z" fill="white"/>
</svg>
