<svg width="20" height="20" viewBox="0 0 20 20" fill="none" xmlns="http://www.w3.org/2000/svg">
<path d="M18.125 17.5H16.25V2.5H16.875C17.0408 2.5 17.1997 2.43415 17.3169 2.31694C17.4342 2.19973 17.5 2.04076 17.5 1.875C17.5 1.70924 17.4342 1.55027 17.3169 1.43306C17.1997 1.31585 17.0408 1.25 16.875 1.25H3.125C2.95924 1.25 2.80027 1.31585 2.68306 1.43306C2.56585 1.55027 2.5 1.70924 2.5 1.875C2.5 2.04076 2.56585 2.19973 2.68306 2.31694C2.80027 2.43415 2.95924 2.5 3.125 2.5H3.75V17.5H1.875C1.70924 17.5 1.55027 17.5658 1.43306 17.6831C1.31585 17.8003 1.25 17.9592 1.25 18.125C1.25 18.2908 1.31585 18.4497 1.43306 18.5669C1.55027 18.6842 1.70924 18.75 1.875 18.75H18.125C18.2908 18.75 18.4497 18.6842 18.5669 18.5669C18.6842 18.4497 18.75 18.2908 18.75 18.125C18.75 17.9592 18.6842 17.8003 18.5669 17.6831C18.4497 17.5658 18.2908 17.5 18.125 17.5ZM6.875 4.375H8.75C8.91576 4.375 9.07473 4.44085 9.19194 4.55806C9.30915 4.67527 9.375 4.83424 9.375 5C9.375 5.16576 9.30915 5.32473 9.19194 5.44194C9.07473 5.55915 8.91576 5.625 8.75 5.625H6.875C6.70924 5.625 6.55027 5.55915 6.43306 5.44194C6.31585 5.32473 6.25 5.16576 6.25 5C6.25 4.83424 6.31585 4.67527 6.43306 4.55806C6.55027 4.44085 6.70924 4.375 6.875 4.375ZM6.875 7.5H8.75C8.91576 7.5 9.07473 7.56585 9.19194 7.68306C9.30915 7.80027 9.375 7.95924 9.375 8.125C9.375 8.29076 9.30915 8.44973 9.19194 8.56694C9.07473 8.68415 8.91576 8.75 8.75 8.75H6.875C6.70924 8.75 6.55027 8.68415 6.43306 8.56694C6.31585 8.44973 6.25 8.29076 6.25 8.125C6.25 7.95924 6.31585 7.80027 6.43306 7.68306C6.55027 7.56585 6.70924 7.5 6.875 7.5ZM6.25 11.25C6.25 11.0842 6.31585 10.9253 6.43306 10.8081C6.55027 10.6908 6.70924 10.625 6.875 10.625H8.75C8.91576 10.625 9.07473 10.6908 9.19194 10.8081C9.30915 10.9253 9.375 11.0842 9.375 11.25C9.375 11.4158 9.30915 11.5747 9.19194 11.6919C9.07473 11.8092 8.91576 11.875 8.75 11.875H6.875C6.70924 11.875 6.55027 11.8092 6.43306 11.6919C6.31585 11.5747 6.25 11.4158 6.25 11.25ZM11.875 17.5H8.125V14.375H11.875V17.5ZM13.125 11.875H11.25C11.0842 11.875 10.9253 11.8092 10.8081 11.6919C10.6908 11.5747 10.625 11.4158 10.625 11.25C10.625 11.0842 10.6908 10.9253 10.8081 10.8081C10.9253 10.6908 11.0842 10.625 11.25 10.625H13.125C13.2908 10.625 13.4497 10.6908 13.5669 10.8081C13.6842 10.9253 13.75 11.0842 13.75 11.25C13.75 11.4158 13.6842 11.5747 13.5669 11.6919C13.4497 11.8092 13.2908 11.875 13.125 11.875ZM13.125 8.75H11.25C11.0842 8.75 10.9253 8.68415 10.8081 8.56694C10.6908 8.44973 10.625 8.29076 10.625 8.125C10.625 7.95924 10.6908 7.80027 10.8081 7.68306C10.9253 7.56585 11.0842 7.5 11.25 7.5H13.125C13.2908 7.5 13.4497 7.56585 13.5669 7.68306C13.6842 7.80027 13.75 7.95924 13.75 8.125C13.75 8.29076 13.6842 8.44973 13.5669 8.56694C13.4497 8.68415 13.2908 8.75 13.125 8.75ZM13.125 5.625H11.25C11.0842 5.625 10.9253 5.55915 10.8081 5.44194C10.6908 5.32473 10.625 5.16576 10.625 5C10.625 4.83424 10.6908 4.67527 10.8081 4.55806C10.9253 4.44085 11.0842 4.375 11.25 4.375H13.125C13.2908 4.375 13.4497 4.44085 13.5669 4.55806C13.6842 4.67527 13.75 4.83424 13.75 5C13.75 5.16576 13.6842 5.32473 13.5669 5.44194C13.4497 5.55915 13.2908 5.625 13.125 5.625Z" fill="white"/>
</svg>
