<svg width="32" height="32" viewBox="0 0 32 32" fill="none" xmlns="http://www.w3.org/2000/svg">
<path d="M21.0464 13.1425L21.0453 12.0558C21.0451 10.767 21.3976 9.51534 22.9252 9.43384C23.1414 9.40721 24.0642 9.4154 24.2887 9.43328C25.3642 9.51878 26.1621 10.4858 26.0741 11.55L26.9992 11.5485C28.1434 11.5475 28.3458 11.6334 28.3447 12.8967L28.3441 17.0888C28.3442 17.721 28.3382 18.3562 28.3519 18.9879C28.3996 19.8579 27.7894 19.8637 27.0971 19.8628L26.0741 19.8613L26.0743 19.8763C26.0902 21.019 25.1608 21.9628 24.0173 21.9546C21.9427 21.9398 21.0446 21.6715 21.0453 19.3938L21.0464 18.2878H10.9227L10.9232 19.8992C10.9157 20.9327 10.1589 21.9643 9.07031 21.9543C9.04074 21.9611 8.05999 21.9795 7.92981 21.9755C6.76524 21.9392 5.90514 20.9814 5.89236 19.8613L4.83672 19.8643C4.29097 19.8669 3.64873 19.8733 3.65582 19.1522L3.65974 12.9508C3.65637 11.7114 3.67448 11.5469 4.96955 11.5486L5.89236 11.55C6.1391 9.53415 6.80193 9.48496 8.63468 9.4334C10.4454 9.3824 10.9231 10.3385 10.9235 11.9785L10.9227 13.1425H21.0464ZM23.1122 10.7898C22.2174 10.8205 22.4412 11.8581 22.4411 12.5076L22.4409 18.1113C22.4411 18.7111 22.4371 19.3102 22.4489 19.9101C22.4654 20.7449 23.4288 20.5618 23.9936 20.5596C24.9369 20.4853 24.6726 19.2908 24.6726 18.566L24.6727 11.8747C24.6729 11.7014 24.6759 11.5282 24.6699 11.3546C24.6439 10.618 23.604 10.79 23.1122 10.7898ZM7.88412 10.7898C7.51318 10.8687 7.35093 11.0988 7.32824 11.4558C7.31962 12.0767 7.32362 12.7033 7.32375 13.3242L7.32399 18.9922C7.32412 19.4658 7.18968 20.2235 7.67787 20.4894C7.84549 20.5807 8.7675 20.6036 8.99062 20.5596C9.341 20.4706 9.51374 20.2488 9.51887 19.8886C9.52868 19.1935 9.52412 18.4978 9.52381 17.8026L9.52412 12.1258C9.52456 10.3869 9.25125 10.9645 7.88412 10.7898ZM5.06328 12.9365V18.4445H5.89236V12.9365H5.06328ZM26.0741 12.9365V18.4445H26.9562V12.9365C26.6996 12.9358 26.3206 12.9224 26.0741 12.9365ZM11.6991 14.5363H10.9227V16.9141H20.3047H21.0464V14.5363H11.6991Z" fill="white"/>
<path d="M11.6991 14.5363H10.9227V16.9141H20.3047H21.0464V14.5363H11.6991Z" fill="white"/>
</svg>
