<svg width="32" height="32" viewBox="0 0 32 32" fill="none" xmlns="http://www.w3.org/2000/svg">
<path d="M7.95004 5.79878C9.82479 4.31302 12.0748 3.37623 14.45 3.09253C14.5203 3.08458 14.5914 3.0916 14.6587 3.11315C14.726 3.13469 14.788 3.17025 14.8406 3.2175C14.8931 3.26475 14.9351 3.3226 14.9636 3.38725C14.9922 3.45189 15.0067 3.52186 15.0063 3.59253V15H11.9625C11.7141 11.7803 10.2735 8.76899 7.92254 6.55503C7.86995 6.50615 7.8285 6.44651 7.80101 6.38018C7.77353 6.31385 7.76065 6.24237 7.76326 6.17061C7.76587 6.09886 7.7839 6.02851 7.81613 5.96434C7.84836 5.90018 7.89404 5.84371 7.95004 5.79878ZM5.75004 8.00878C4.29199 9.86957 3.37159 12.0943 3.08879 14.4413C3.08046 14.5117 3.0872 14.5831 3.10857 14.6507C3.12993 14.7183 3.16544 14.7806 3.21273 14.8335C3.26002 14.8863 3.318 14.9285 3.38284 14.9572C3.44768 14.9859 3.51788 15.0005 3.58879 15H9.95379C9.70712 12.3024 8.47218 9.79113 6.48629 7.94878C6.43542 7.90141 6.37524 7.86516 6.30957 7.84236C6.24391 7.81956 6.17421 7.8107 6.10493 7.81634C6.03565 7.82199 5.96831 7.84202 5.9072 7.87515C5.8461 7.90829 5.79257 7.9538 5.75004 8.00878ZM24.05 5.79878C22.1753 4.31302 19.9253 3.37623 17.55 3.09253C17.4798 3.08458 17.4087 3.0916 17.3414 3.11315C17.2741 3.13469 17.2121 3.17025 17.1595 3.2175C17.107 3.26475 17.065 3.3226 17.0365 3.38725C17.0079 3.45189 16.9933 3.52186 16.9938 3.59253V15H20.0313C20.2798 11.7803 21.7203 8.76899 24.0713 6.55503C24.1243 6.50659 24.1662 6.44731 24.1942 6.38122C24.2222 6.31514 24.2356 6.24379 24.2336 6.17205C24.2316 6.1003 24.2142 6.02982 24.1825 5.96542C24.1508 5.90101 24.1056 5.84417 24.05 5.79878ZM28.9075 14.4413C28.6258 12.0946 27.7068 9.86998 26.25 8.00878C26.2075 7.95438 26.1542 7.90938 26.0934 7.87661C26.0326 7.84384 25.9657 7.82401 25.8969 7.81838C25.8281 7.81274 25.7589 7.82142 25.6936 7.84386C25.6283 7.8663 25.5683 7.90203 25.5175 7.94878C23.5303 9.79053 22.294 12.3019 22.0463 15H28.41C28.4807 15.0002 28.5507 14.9853 28.6152 14.9564C28.6797 14.9276 28.7374 14.8853 28.7844 14.8325C28.8314 14.7797 28.8667 14.7175 28.888 14.6501C28.9092 14.5827 28.9158 14.5115 28.9075 14.4413ZM3.09254 17.5588C3.37424 19.9054 4.29333 22.1301 5.75004 23.9913C5.79256 24.0457 5.84589 24.0907 5.90666 24.1234C5.96744 24.1562 6.03434 24.176 6.10315 24.1817C6.17197 24.1873 6.2412 24.1786 6.3065 24.1562C6.3718 24.1338 6.43174 24.098 6.48254 24.0513C8.46981 22.2095 9.70613 19.6982 9.95379 17H3.59004C3.51934 16.9999 3.44942 17.0148 3.38488 17.0436C3.32034 17.0725 3.26267 17.1147 3.21565 17.1675C3.16864 17.2203 3.13335 17.2825 3.11213 17.35C3.09091 17.4174 3.08423 17.4886 3.09254 17.5588ZM26.25 23.9913C27.7081 22.1305 28.6285 19.9058 28.9113 17.5588C28.9196 17.4884 28.9129 17.417 28.8915 17.3494C28.8701 17.2817 28.8346 17.2194 28.7874 17.1666C28.7401 17.1138 28.6821 17.0716 28.6172 17.0429C28.5524 17.0141 28.4822 16.9995 28.4113 17H22.0463C22.293 19.6976 23.5279 22.2089 25.5138 24.0513C25.5647 24.0987 25.6248 24.1349 25.6905 24.1577C25.7562 24.1805 25.8259 24.1894 25.8952 24.1837C25.9644 24.1781 26.0318 24.158 26.0929 24.1249C26.154 24.0918 26.2075 24.0463 26.25 23.9913ZM7.95004 26.2013C9.82479 27.687 12.0748 28.6238 14.45 28.9075C14.5203 28.9155 14.5914 28.9085 14.6587 28.8869C14.726 28.8654 14.788 28.8298 14.8406 28.7826C14.8931 28.7353 14.9351 28.6775 14.9636 28.6128C14.9922 28.5482 15.0067 28.4782 15.0063 28.4075V17H11.9625C11.7141 20.2198 10.2735 23.2311 7.92254 25.445C7.86995 25.4939 7.8285 25.5535 7.80101 25.6199C7.77353 25.6862 7.76065 25.7577 7.76326 25.8294C7.76587 25.9012 7.7839 25.9716 7.81613 26.0357C7.84836 26.0999 7.89404 26.1563 7.95004 26.2013ZM20.0375 17H17V28.41C16.9996 28.4807 17.0141 28.5507 17.0427 28.6153C17.0713 28.68 17.1132 28.7378 17.1658 28.7851C17.2183 28.8323 17.2803 28.8679 17.3476 28.8894C17.415 28.911 17.4861 28.918 17.5563 28.91C19.9315 28.6263 22.1815 27.6895 24.0563 26.2038C24.1123 26.1588 24.158 26.1024 24.1902 26.0382C24.2224 25.9741 24.2405 25.9037 24.2431 25.8319C24.2457 25.7602 24.2328 25.6887 24.2053 25.6224C24.1778 25.556 24.1364 25.4964 24.0838 25.4475C21.73 23.2339 20.2871 20.2215 20.0375 17Z" fill="white"/>
</svg>
