<svg width="80" height="80" viewBox="0 0 80 80" fill="none" xmlns="http://www.w3.org/2000/svg">
<rect width="80" height="80" rx="20" fill="white" fill-opacity="0.12"/>
<path d="M47.1344 35.3656C47.2506 35.4817 47.3428 35.6196 47.4057 35.7713C47.4686 35.9231 47.501 36.0857 47.501 36.25C47.501 36.4143 47.4686 36.5769 47.4057 36.7287C47.3428 36.8804 47.2506 37.0183 47.1344 37.1344L38.3844 45.8844C38.2683 46.0006 38.1304 46.0928 37.9787 46.1557C37.8269 46.2186 37.6643 46.251 37.5 46.251C37.3357 46.251 37.1731 46.2186 37.0213 46.1557C36.8696 46.0928 36.7317 46.0006 36.6156 45.8844L32.8656 42.1344C32.6311 41.8998 32.4993 41.5817 32.4993 41.25C32.4993 40.9183 32.6311 40.6002 32.8656 40.3656C33.1002 40.1311 33.4183 39.9993 33.75 39.9993C34.0817 39.9993 34.3998 40.1311 34.6344 40.3656L37.5 43.2328L45.3656 35.3656C45.4817 35.2494 45.6196 35.1572 45.7713 35.0943C45.9231 35.0314 46.0857 34.999 46.25 34.999C46.4143 34.999 46.5769 35.0314 46.7287 35.0943C46.8804 35.1572 47.0183 35.2494 47.1344 35.3656ZM56.25 40C56.25 43.2139 55.297 46.3557 53.5114 49.028C51.7258 51.7003 49.1879 53.7831 46.2186 55.013C43.2493 56.243 39.982 56.5648 36.8298 55.9378C33.6776 55.3108 30.7821 53.7631 28.5095 51.4905C26.2369 49.2179 24.6893 46.3224 24.0622 43.1702C23.4352 40.018 23.757 36.7507 24.987 33.7814C26.2169 30.8121 28.2997 28.2742 30.972 26.4886C33.6443 24.703 36.7861 23.75 40 23.75C44.3084 23.7545 48.439 25.4681 51.4855 28.5145C54.5319 31.561 56.2455 35.6916 56.25 40ZM53.75 40C53.75 37.2805 52.9436 34.6221 51.4327 32.3609C49.9218 30.0997 47.7744 28.3374 45.2619 27.2967C42.7494 26.256 39.9848 25.9837 37.3175 26.5142C34.6503 27.0447 32.2003 28.3543 30.2773 30.2773C28.3543 32.2003 27.0448 34.6503 26.5142 37.3175C25.9837 39.9847 26.256 42.7494 27.2967 45.2619C28.3374 47.7744 30.0997 49.9218 32.3609 51.4327C34.6221 52.9436 37.2805 53.75 40 53.75C43.6455 53.7459 47.1404 52.2959 49.7182 49.7182C52.2959 47.1404 53.7459 43.6455 53.75 40Z" fill="#FACCC0"/>
</svg>
