<svg width="80" height="80" viewBox="0 0 80 80" fill="none" xmlns="http://www.w3.org/2000/svg">
<rect width="80" height="80" rx="20" fill="white" fill-opacity="0.12"/>
<path d="M57.3717 35.1967C57.2155 34.7162 56.9205 34.2928 56.524 33.9797C56.1275 33.6666 55.6472 33.4779 55.1436 33.4373L45.9249 32.6935L42.3655 24.0857C42.173 23.6167 41.8454 23.2155 41.4243 22.9331C41.0032 22.6508 40.5076 22.5 40.0006 22.5C39.4936 22.5 38.9981 22.6508 38.577 22.9331C38.1559 23.2155 37.8283 23.6167 37.6358 24.0857L34.0795 32.692L24.8561 33.4373C24.3517 33.4799 23.8711 33.6705 23.4745 33.9851C23.0779 34.2997 22.783 34.7243 22.6267 35.2058C22.4704 35.6873 22.4596 36.2042 22.5957 36.6917C22.7319 37.1793 23.0089 37.6158 23.392 37.9467L30.4233 44.0138L28.2811 53.0857C28.1613 53.5786 28.1906 54.0959 28.3654 54.5721C28.5401 55.0482 28.8524 55.4617 29.2626 55.7601C29.6728 56.0584 30.1624 56.2281 30.6692 56.2477C31.176 56.2673 31.6772 56.1359 32.1092 55.8701L39.9999 51.0138L47.8952 55.8701C48.3273 56.1327 48.8275 56.2616 49.3328 56.2406C49.838 56.2195 50.3258 56.0494 50.7345 55.7517C51.1433 55.454 51.4549 55.0421 51.63 54.5676C51.8051 54.0932 51.8359 53.5776 51.7186 53.0857L49.5686 44.0123L56.5999 37.9451C56.9861 37.6148 57.2657 37.1773 57.4031 36.6881C57.5405 36.1988 57.5296 35.6797 57.3717 35.1967ZM54.9749 36.0513L47.3655 42.6138C47.192 42.7634 47.0629 42.9578 46.9923 43.1758C46.9218 43.3937 46.9125 43.6269 46.9655 43.8498L49.2905 53.6623C49.2965 53.6758 49.2971 53.6911 49.2922 53.7051C49.2872 53.719 49.2771 53.7306 49.2639 53.7373C49.2358 53.7592 49.228 53.7545 49.2045 53.7373L40.6545 48.4795C40.4576 48.3584 40.231 48.2943 39.9999 48.2943C39.7687 48.2943 39.5421 48.3584 39.3452 48.4795L30.7952 53.7404C30.7717 53.7545 30.7655 53.7592 30.7358 53.7404C30.7226 53.7337 30.7125 53.7222 30.7076 53.7082C30.7026 53.6943 30.7032 53.6789 30.7092 53.6654L33.0342 43.8529C33.0872 43.63 33.0779 43.3969 33.0074 43.1789C32.9369 42.9609 32.8078 42.7665 32.6342 42.617L25.0249 36.0545C25.0061 36.0388 24.9889 36.0248 25.0045 35.9763C25.0202 35.9279 25.0327 35.9342 25.0561 35.931L35.0436 35.1248C35.2727 35.1051 35.4919 35.0227 35.6772 34.8865C35.8624 34.7503 36.0065 34.5657 36.0936 34.3529L39.9405 25.0388C39.953 25.0123 39.9577 24.9998 39.9952 24.9998C40.0327 24.9998 40.0374 25.0123 40.0499 25.0388L43.9061 34.3529C43.994 34.5658 44.139 34.7502 44.3252 34.8859C44.5113 35.0215 44.7312 35.1031 44.9608 35.1217L54.9483 35.9279C54.9717 35.9279 54.9858 35.9279 54.9999 35.9732C55.0139 36.0185 54.9999 36.0357 54.9749 36.0513Z" fill="#FACCC0"/>
</svg>
