<svg width="80" height="80" viewBox="0 0 80 80" fill="none" xmlns="http://www.w3.org/2000/svg">
<rect width="80" height="80" rx="20" fill="white" fill-opacity="0.12"/>
<path d="M57.5 52.5H56.25V33.75C56.25 33.4185 56.1183 33.1005 55.8839 32.8661C55.6495 32.6317 55.3315 32.5 55 32.5H45C44.6685 32.5 44.3505 32.6317 44.1161 32.8661C43.8817 33.1005 43.75 33.4185 43.75 33.75V40H36.25V26.25C36.25 25.9185 36.1183 25.6005 35.8839 25.3661C35.6495 25.1317 35.3315 25 35 25H25C24.6685 25 24.3505 25.1317 24.1161 25.3661C23.8817 25.6005 23.75 25.9185 23.75 26.25V52.5H22.5C22.1685 52.5 21.8505 52.6317 21.6161 52.8661C21.3817 53.1005 21.25 53.4185 21.25 53.75C21.25 54.0815 21.3817 54.3995 21.6161 54.6339C21.8505 54.8683 22.1685 55 22.5 55H57.5C57.8315 55 58.1495 54.8683 58.3839 54.6339C58.6183 54.3995 58.75 54.0815 58.75 53.75C58.75 53.4185 58.6183 53.1005 58.3839 52.8661C58.1495 52.6317 57.8315 52.5 57.5 52.5ZM46.25 35H53.75V52.5H46.25V35ZM43.75 42.5V52.5H36.25V42.5H43.75ZM26.25 27.5H33.75V52.5H26.25V27.5ZM31.25 31.25V33.75C31.25 34.0815 31.1183 34.3995 30.8839 34.6339C30.6495 34.8683 30.3315 35 30 35C29.6685 35 29.3505 34.8683 29.1161 34.6339C28.8817 34.3995 28.75 34.0815 28.75 33.75V31.25C28.75 30.9185 28.8817 30.6005 29.1161 30.3661C29.3505 30.1317 29.6685 30 30 30C30.3315 30 30.6495 30.1317 30.8839 30.3661C31.1183 30.6005 31.25 30.9185 31.25 31.25ZM31.25 38.75V41.25C31.25 41.5815 31.1183 41.8995 30.8839 42.1339C30.6495 42.3683 30.3315 42.5 30 42.5C29.6685 42.5 29.3505 42.3683 29.1161 42.1339C28.8817 41.8995 28.75 41.5815 28.75 41.25V38.75C28.75 38.4185 28.8817 38.1005 29.1161 37.8661C29.3505 37.6317 29.6685 37.5 30 37.5C30.3315 37.5 30.6495 37.6317 30.8839 37.8661C31.1183 38.1005 31.25 38.4185 31.25 38.75ZM31.25 46.25V48.75C31.25 49.0815 31.1183 49.3995 30.8839 49.6339C30.6495 49.8683 30.3315 50 30 50C29.6685 50 29.3505 49.8683 29.1161 49.6339C28.8817 49.3995 28.75 49.0815 28.75 48.75V46.25C28.75 45.9185 28.8817 45.6005 29.1161 45.3661C29.3505 45.1317 29.6685 45 30 45C30.3315 45 30.6495 45.1317 30.8839 45.3661C31.1183 45.6005 31.25 45.9185 31.25 46.25ZM38.75 48.75V46.25C38.75 45.9185 38.8817 45.6005 39.1161 45.3661C39.3505 45.1317 39.6685 45 40 45C40.3315 45 40.6495 45.1317 40.8839 45.3661C41.1183 45.6005 41.25 45.9185 41.25 46.25V48.75C41.25 49.0815 41.1183 49.3995 40.8839 49.6339C40.6495 49.8683 40.3315 50 40 50C39.6685 50 39.3505 49.8683 39.1161 49.6339C38.8817 49.3995 38.75 49.0815 38.75 48.75ZM48.75 48.75V46.25C48.75 45.9185 48.8817 45.6005 49.1161 45.3661C49.3505 45.1317 49.6685 45 50 45C50.3315 45 50.6495 45.1317 50.8839 45.3661C51.1183 45.6005 51.25 45.9185 51.25 46.25V48.75C51.25 49.0815 51.1183 49.3995 50.8839 49.6339C50.6495 49.8683 50.3315 50 50 50C49.6685 50 49.3505 49.8683 49.1161 49.6339C48.8817 49.3995 48.75 49.0815 48.75 48.75ZM48.75 41.25V38.75C48.75 38.4185 48.8817 38.1005 49.1161 37.8661C49.3505 37.6317 49.6685 37.5 50 37.5C50.3315 37.5 50.6495 37.6317 50.8839 37.8661C51.1183 38.1005 51.25 38.4185 51.25 38.75V41.25C51.25 41.5815 51.1183 41.8995 50.8839 42.1339C50.6495 42.3683 50.3315 42.5 50 42.5C49.6685 42.5 49.3505 42.3683 49.1161 42.1339C48.8817 41.8995 48.75 41.5815 48.75 41.25Z" fill="#FACCC0"/>
</svg>
