<svg width="80" height="80" viewBox="0 0 80 80" fill="none" xmlns="http://www.w3.org/2000/svg">
<rect width="80" height="80" rx="20" fill="white" fill-opacity="0.12"/>
<path d="M40 41.25C40 41.5815 39.8683 41.8995 39.6339 42.1339C39.3995 42.3683 39.0815 42.5 38.75 42.5H31.25C30.9185 42.5 30.6005 42.3683 30.3661 42.1339C30.1317 41.8995 30 41.5815 30 41.25C30 40.9185 30.1317 40.6005 30.3661 40.3661C30.6005 40.1317 30.9185 40 31.25 40H38.75C39.0815 40 39.3995 40.1317 39.6339 40.3661C39.8683 40.6005 40 40.9185 40 41.25ZM38.75 35H31.25C30.9185 35 30.6005 35.1317 30.3661 35.3661C30.1317 35.6005 30 35.9185 30 36.25C30 36.5815 30.1317 36.8995 30.3661 37.1339C30.6005 37.3683 30.9185 37.5 31.25 37.5H38.75C39.0815 37.5 39.3995 37.3683 39.6339 37.1339C39.8683 36.8995 40 36.5815 40 36.25C40 35.9185 39.8683 35.6005 39.6339 35.3661C39.3995 35.1317 39.0815 35 38.75 35ZM56.25 45.2297V55C56.252 55.2204 56.1957 55.4373 56.0868 55.6289C55.9779 55.8205 55.8202 55.9799 55.6299 56.091C55.4395 56.202 55.2232 56.2608 55.0028 56.2612C54.7824 56.2617 54.5658 56.2039 54.375 56.0938L50.625 53.9469L46.875 56.0938C46.6842 56.2039 46.4676 56.2617 46.2472 56.2612C46.0268 56.2608 45.8105 56.202 45.6201 56.091C45.4298 55.9799 45.2721 55.8205 45.1632 55.6289C45.0543 55.4373 44.998 55.2204 45 55V51.25H26.25C25.587 51.25 24.9511 50.9866 24.4822 50.5178C24.0134 50.0489 23.75 49.413 23.75 48.75V28.75C23.75 28.087 24.0134 27.4511 24.4822 26.9822C24.9511 26.5134 25.587 26.25 26.25 26.25H53.75C54.413 26.25 55.0489 26.5134 55.5178 26.9822C55.9866 27.4511 56.25 28.087 56.25 28.75V33.5203C57.0402 34.277 57.669 35.1858 58.0986 36.192C58.5282 37.1982 58.7497 38.2809 58.7497 39.375C58.7497 40.4691 58.5282 41.5518 58.0986 42.558C57.669 43.5642 57.0402 44.473 56.25 45.2297ZM45 48.75V45.2297C43.6378 43.916 42.777 42.168 42.5659 40.2874C42.3549 38.4067 42.807 36.5114 43.8441 34.9285C44.8812 33.3456 46.4384 32.1743 48.2469 31.6168C50.0553 31.0594 52.0017 31.1507 53.75 31.875V28.75H26.25V48.75H45ZM53.75 46.875C52.7601 47.2886 51.6979 47.5016 50.625 47.5016C49.5521 47.5016 48.4899 47.2886 47.5 46.875V52.8469L50 51.4156C50.1889 51.3076 50.4027 51.2508 50.6203 51.2508C50.8379 51.2508 51.0517 51.3076 51.2406 51.4156L53.7406 52.8469L53.75 46.875ZM56.25 39.375C56.25 38.2625 55.9201 37.1749 55.302 36.2499C54.6839 35.3249 53.8054 34.6039 52.7776 34.1782C51.7498 33.7524 50.6188 33.641 49.5276 33.8581C48.4365 34.0751 47.4342 34.6109 46.6475 35.3975C45.8609 36.1842 45.3251 37.1865 45.1081 38.2776C44.891 39.3688 45.0024 40.4998 45.4282 41.5276C45.8539 42.5554 46.5749 43.4339 47.4999 44.052C48.4249 44.6701 49.5125 45 50.625 45C51.3637 45 52.0951 44.8545 52.7776 44.5718C53.46 44.2891 54.0801 43.8748 54.6025 43.3525C55.1248 42.8301 55.5391 42.21 55.8218 41.5276C56.1045 40.8451 56.25 40.1137 56.25 39.375Z" fill="#FACCC0"/>
</svg>
