<svg width="80" height="80" viewBox="0 0 80 80" fill="none" xmlns="http://www.w3.org/2000/svg">
<rect width="80" height="80" rx="20" fill="white" fill-opacity="0.12"/>
<path d="M55 53.75C55 54.0815 54.8683 54.3995 54.6339 54.6339C54.3995 54.8683 54.0815 55 53.75 55H26.25C25.9185 55 25.6005 54.8683 25.3661 54.6339C25.1317 54.3995 25 54.0815 25 53.75C25 53.4185 25.1317 53.1005 25.3661 52.8661C25.6005 52.6317 25.9185 52.5 26.25 52.5H53.75C54.0815 52.5 54.3995 52.6317 54.6339 52.8661C54.8683 53.1005 55 53.4185 55 53.75ZM41.25 47.5V32.5C41.25 31.837 41.5134 31.2011 41.9822 30.7322C42.4511 30.2634 43.087 30 43.75 30H50C50.663 30 51.2989 30.2634 51.7678 30.7322C52.2366 31.2011 52.5 31.837 52.5 32.5V47.5C52.5 48.163 52.2366 48.7989 51.7678 49.2678C51.2989 49.7366 50.663 50 50 50H43.75C43.087 50 42.4511 49.7366 41.9822 49.2678C41.5134 48.7989 41.25 48.163 41.25 47.5ZM43.75 47.5H50V32.5H43.75V47.5ZM27.5 47.5V26.25C27.5 25.587 27.7634 24.9511 28.2322 24.4822C28.7011 24.0134 29.337 23.75 30 23.75H36.25C36.913 23.75 37.5489 24.0134 38.0178 24.4822C38.4866 24.9511 38.75 25.587 38.75 26.25V47.5C38.75 48.163 38.4866 48.7989 38.0178 49.2678C37.5489 49.7366 36.913 50 36.25 50H30C29.337 50 28.7011 49.7366 28.2322 49.2678C27.7634 48.7989 27.5 48.163 27.5 47.5ZM30 47.5H36.25V26.25H30V47.5Z" fill="#FACCC0"/>
</svg>
