<svg width="80" height="80" viewBox="0 0 80 80" fill="none" xmlns="http://www.w3.org/2000/svg">
<rect width="80" height="80" rx="20" fill="white" fill-opacity="0.12"/>
<path d="M38.3203 44.6749C39.9956 43.5596 41.2676 41.9347 41.948 40.0406C42.6284 38.1465 42.6812 36.0837 42.0986 34.1572C41.516 32.2308 40.3289 30.543 38.7129 29.3434C37.0968 28.1438 35.1376 27.4961 33.125 27.4961C31.1124 27.4961 29.1532 28.1438 27.5372 29.3434C25.9211 30.543 24.734 32.2308 24.1514 34.1572C23.5688 36.0837 23.6216 38.1465 24.302 40.0406C24.9825 41.9347 26.2544 43.5596 27.9297 44.6749C24.8992 45.7918 22.3111 47.8587 20.5516 50.5671C20.4591 50.7045 20.3949 50.859 20.3626 51.0215C20.3304 51.184 20.3307 51.3512 20.3637 51.5136C20.3966 51.6759 20.4615 51.8301 20.5546 51.9671C20.6477 52.1042 20.767 52.2214 20.9058 52.3119C21.0446 52.4024 21.1999 52.4644 21.3628 52.4943C21.5258 52.5242 21.693 52.5215 21.8549 52.4862C22.0167 52.4509 22.17 52.3838 22.3057 52.2888C22.4414 52.1938 22.5568 52.0727 22.6453 51.9327C23.7803 50.1871 25.3334 48.7526 27.1635 47.7596C28.9936 46.7665 31.0428 46.2464 33.125 46.2464C35.2072 46.2464 37.2564 46.7665 39.0865 47.7596C40.9166 48.7526 42.4697 50.1871 43.6047 51.9327C43.788 52.2052 44.0713 52.3946 44.3931 52.4599C44.715 52.5253 45.0496 52.4613 45.3247 52.2819C45.5998 52.1025 45.7932 51.822 45.8631 51.5011C45.9331 51.1802 45.8739 50.8447 45.6985 50.5671C43.9389 47.8587 41.3508 45.7918 38.3203 44.6749ZM26.25 36.8749C26.25 35.5152 26.6532 34.1859 27.4087 33.0554C28.1641 31.9248 29.2378 31.0436 30.4941 30.5232C31.7503 30.0029 33.1326 29.8667 34.4663 30.132C35.7999 30.3973 37.0249 31.0521 37.9864 32.0135C38.9479 32.975 39.6026 34.2 39.8679 35.5337C40.1332 36.8673 39.997 38.2496 39.4767 39.5058C38.9563 40.7621 38.0751 41.8358 36.9446 42.5913C35.814 43.3467 34.4848 43.7499 33.125 43.7499C31.3023 43.7478 29.5548 43.0228 28.2659 41.734C26.9771 40.4451 26.2521 38.6976 26.25 36.8749ZM59.0844 52.2968C58.8067 52.4778 58.4685 52.5412 58.1442 52.4729C57.8198 52.4046 57.5358 52.2103 57.3547 51.9327C56.2211 50.186 54.6682 48.7509 52.8377 47.7583C51.0072 46.7657 48.9573 46.2471 46.875 46.2499C46.5435 46.2499 46.2256 46.1182 45.9911 45.8838C45.7567 45.6494 45.625 45.3314 45.625 44.9999C45.625 44.6684 45.7567 44.3504 45.9911 44.116C46.2256 43.8816 46.5435 43.7499 46.875 43.7499C47.8875 43.7489 48.8872 43.5244 49.8028 43.0923C50.7184 42.6601 51.5273 42.0311 52.1716 41.2502C52.8159 40.4692 53.2798 39.5556 53.5301 38.5745C53.7804 37.5935 53.811 36.5693 53.6196 35.5751C53.4281 34.5809 53.0195 33.6413 52.4228 32.8233C51.8262 32.0054 51.0562 31.3293 50.168 30.8434C49.2798 30.3575 48.2952 30.0738 47.2846 30.0125C46.274 29.9512 45.2623 30.1139 44.3219 30.489C44.1686 30.5552 44.0035 30.5901 43.8365 30.5915C43.6694 30.5929 43.5038 30.5609 43.3493 30.4972C43.1949 30.4335 43.0548 30.3395 42.9373 30.2208C42.8198 30.102 42.7273 29.9609 42.6653 29.8058C42.6033 29.6507 42.5729 29.4848 42.5761 29.3177C42.5793 29.1507 42.6159 28.986 42.6838 28.8334C42.7518 28.6808 42.8496 28.5433 42.9715 28.4292C43.0934 28.315 43.237 28.2264 43.3938 28.1686C45.5461 27.3103 47.94 27.2794 50.1137 28.0819C52.2874 28.8845 54.0869 30.4636 55.165 32.5146C56.2431 34.5656 56.5235 36.9433 55.952 39.1888C55.3806 41.4344 53.9977 43.3888 52.0703 44.6749C55.1008 45.7918 57.6889 47.8587 59.4485 50.5671C59.6295 50.8447 59.6929 51.183 59.6246 51.5073C59.5563 51.8317 59.362 52.1157 59.0844 52.2968Z" fill="#FACCC0"/>
</svg>
