<svg width="80" height="80" viewBox="0 0 80 80" fill="none" xmlns="http://www.w3.org/2000/svg">
<rect width="80" height="80" rx="20" fill="white" fill-opacity="0.12"/>
<path d="M59.3375 33.8969L40.5875 23.8969C40.4067 23.8006 40.2049 23.7502 40 23.7502C39.7951 23.7502 39.5934 23.8006 39.4125 23.8969L20.6625 33.8969C20.4625 34.0035 20.2953 34.1624 20.1786 34.3568C20.062 34.5511 20.0004 34.7734 20.0004 35C20.0004 35.2267 20.062 35.449 20.1786 35.6433C20.2953 35.8376 20.4625 35.9966 20.6625 36.1032L25 38.4172V45.9828C24.9987 46.5968 25.2247 47.1896 25.6344 47.6469C27.6813 49.9266 32.2672 53.75 40 53.75C42.564 53.7712 45.1088 53.3068 47.5 52.3813V57.5C47.5 57.8316 47.6317 58.1495 47.8661 58.3839C48.1005 58.6183 48.4185 58.75 48.75 58.75C49.0815 58.75 49.3995 58.6183 49.6339 58.3839C49.8683 58.1495 50 57.8316 50 57.5V51.1735C51.63 50.2325 53.103 49.0426 54.3656 47.6469C54.7753 47.1896 55.0013 46.5968 55 45.9828V38.4172L59.3375 36.1032C59.5375 35.9966 59.7048 35.8376 59.8214 35.6433C59.938 35.449 59.9996 35.2267 59.9996 35C59.9996 34.7734 59.938 34.5511 59.8214 34.3568C59.7048 34.1624 59.5375 34.0035 59.3375 33.8969ZM40 51.25C33.2391 51.25 29.2625 47.9469 27.5 45.9828V39.75L39.4125 46.1032C39.5934 46.1995 39.7951 46.2498 40 46.2498C40.2049 46.2498 40.4067 46.1995 40.5875 46.1032L47.5 42.4172V49.6578C45.5313 50.5766 43.05 51.25 40 51.25ZM52.5 45.9766C51.7507 46.8081 50.9123 47.5547 50 48.2032V41.0828L52.5 39.75V45.9766ZM49.375 38.5844L49.3406 38.5641L40.5906 33.8969C40.2987 33.7478 39.9599 33.7193 39.6472 33.8176C39.3344 33.916 39.0728 34.1332 38.9188 34.4225C38.7647 34.7119 38.7304 35.0501 38.8233 35.3645C38.9163 35.6789 39.129 35.9441 39.4156 36.1032L46.7188 40L40 43.5828L23.9063 35L40 26.4172L56.0938 35L49.375 38.5844Z" fill="#FACCC0"/>
</svg>
