<svg width="80" height="80" viewBox="0 0 80 80" fill="none" xmlns="http://www.w3.org/2000/svg">
<rect width="80" height="80" rx="20" fill="white" fill-opacity="0.12"/>
<path d="M40 32.5001C38.5166 32.5001 37.0666 32.9399 35.8332 33.764C34.5998 34.5881 33.6386 35.7595 33.0709 37.1299C32.5032 38.5004 32.3547 40.0084 32.6441 41.4632C32.9335 42.9181 33.6478 44.2545 34.6967 45.3034C35.7456 46.3522 37.082 47.0666 38.5368 47.3559C39.9917 47.6453 41.4997 47.4968 42.8701 46.9291C44.2406 46.3615 45.4119 45.4002 46.236 44.1668C47.0601 42.9335 47.5 41.4834 47.5 40.0001C47.4979 38.0116 46.7071 36.1051 45.301 34.699C43.8949 33.293 41.9885 32.5021 40 32.5001ZM40 45.0001C39.0111 45.0001 38.0444 44.7068 37.2221 44.1574C36.3999 43.608 35.759 42.8271 35.3806 41.9135C35.0022 40.9998 34.9031 39.9945 35.0961 39.0246C35.289 38.0547 35.7652 37.1638 36.4645 36.4645C37.1637 35.7653 38.0546 35.2891 39.0245 35.0961C39.9944 34.9032 40.9998 35.0022 41.9134 35.3807C42.827 35.7591 43.6079 36.4 44.1573 37.2222C44.7067 38.0444 45 39.0111 45 40.0001C45 41.3261 44.4732 42.5979 43.5355 43.5356C42.5978 44.4733 41.3261 45.0001 40 45.0001ZM57.1781 36.7516C57.1433 36.5756 57.071 36.4091 56.9661 36.2635C56.8612 36.1179 56.7262 35.9966 56.5703 35.9079L51.9094 33.2516L51.8906 27.9985C51.8901 27.8176 51.8502 27.6389 51.7739 27.4749C51.6975 27.3109 51.5865 27.1654 51.4484 27.0485C49.7577 25.6183 47.8107 24.5223 45.7109 23.8188C45.5456 23.7628 45.3703 23.7421 45.1965 23.758C45.0226 23.7739 44.854 23.826 44.7016 23.911L40 26.5391L35.2937 23.9063C35.1412 23.8208 34.9724 23.7683 34.7982 23.7522C34.6241 23.736 34.4485 23.7566 34.2828 23.8126C32.1846 24.5212 30.2398 25.6214 28.5516 27.0547C28.4137 27.1715 28.3028 27.3167 28.2264 27.4805C28.1501 27.6442 28.1102 27.8225 28.1094 28.0032L28.0859 33.261L23.425 35.9172C23.2691 36.006 23.1341 36.1273 23.0292 36.2729C22.9243 36.4185 22.852 36.585 22.8172 36.761C22.3906 38.9046 22.3906 41.1112 22.8172 43.2547C22.852 43.4308 22.9243 43.5972 23.0292 43.7428C23.1341 43.8884 23.2691 44.0097 23.425 44.0985L28.0859 46.7547L28.1047 52.0079C28.1052 52.1888 28.1451 52.3674 28.2214 52.5314C28.2978 52.6955 28.4088 52.8409 28.5469 52.9579C30.2376 54.388 32.1846 55.484 34.2844 56.1876C34.4497 56.2435 34.625 56.2642 34.7988 56.2484C34.9727 56.2325 35.1413 56.1804 35.2937 56.0954L40 53.461L44.7062 56.0938C44.8925 56.1976 45.1024 56.2514 45.3156 56.2501C45.4521 56.25 45.5877 56.2278 45.7172 56.1844C47.8151 55.4767 49.7599 54.3776 51.4484 52.9454C51.5863 52.8286 51.6972 52.6834 51.7736 52.5196C51.8499 52.3559 51.8898 52.1776 51.8906 51.9969L51.9141 46.7391L56.575 44.0829C56.7309 43.9941 56.8659 43.8728 56.9708 43.7272C57.0757 43.5816 57.148 43.4151 57.1828 43.2391C57.607 41.0973 57.6054 38.8929 57.1781 36.7516ZM54.8344 42.2063L50.3703 44.7454C50.1747 44.8566 50.0128 45.0185 49.9016 45.2141C49.8109 45.3704 49.7156 45.536 49.6187 45.6922C49.4947 45.8893 49.4287 46.1172 49.4281 46.3501L49.4047 51.3891C48.2048 52.3314 46.868 53.0849 45.4406 53.6235L40.9375 51.1141C40.7505 51.0107 40.5402 50.9569 40.3266 50.9579H40.2969C40.1078 50.9579 39.9172 50.9579 39.7281 50.9579C39.5045 50.9523 39.2834 51.0062 39.0875 51.1141L34.5812 53.6297C33.1508 53.0952 31.8103 52.3455 30.6062 51.4063L30.5891 46.3751C30.5883 46.1418 30.5223 45.9134 30.3984 45.7157C30.3016 45.5594 30.2062 45.4032 30.1172 45.2376C30.0067 45.0389 29.8448 44.8738 29.6484 44.7594L25.1797 42.2141C24.9484 40.7513 24.9484 39.2613 25.1797 37.7985L29.6359 35.2547C29.8315 35.1435 29.9935 34.9816 30.1047 34.786C30.1953 34.6297 30.2906 34.4641 30.3875 34.3079C30.5115 34.1108 30.5776 33.8829 30.5781 33.6501L30.6016 28.611C31.8014 27.6687 33.1382 26.9152 34.5656 26.3766L39.0625 28.886C39.2582 28.9945 39.4794 29.0484 39.7031 29.0422C39.8922 29.0422 40.0828 29.0422 40.2719 29.0422C40.4955 29.0478 40.7166 28.9939 40.9125 28.886L45.4187 26.3704C46.8492 26.9049 48.1896 27.6546 49.3937 28.5938L49.4109 33.6251C49.4117 33.8583 49.4777 34.0867 49.6016 34.2844C49.6984 34.4407 49.7937 34.5969 49.8828 34.7626C49.9932 34.9612 50.1552 35.1263 50.3516 35.2407L54.8203 37.786C55.0546 39.2499 55.0573 40.7416 54.8281 42.2063H54.8344Z" fill="#343330"/>
<path d="M40 32.5001C38.5166 32.5001 37.0666 32.9399 35.8332 33.764C34.5998 34.5881 33.6386 35.7595 33.0709 37.1299C32.5032 38.5004 32.3547 40.0084 32.6441 41.4632C32.9335 42.9181 33.6478 44.2545 34.6967 45.3034C35.7456 46.3522 37.082 47.0666 38.5368 47.3559C39.9917 47.6453 41.4997 47.4968 42.8701 46.9291C44.2406 46.3615 45.4119 45.4002 46.236 44.1668C47.0601 42.9335 47.5 41.4834 47.5 40.0001C47.4979 38.0116 46.7071 36.1051 45.301 34.699C43.8949 33.293 41.9885 32.5021 40 32.5001ZM40 45.0001C39.0111 45.0001 38.0444 44.7068 37.2221 44.1574C36.3999 43.608 35.759 42.8271 35.3806 41.9135C35.0022 40.9998 34.9031 39.9945 35.0961 39.0246C35.289 38.0547 35.7652 37.1638 36.4645 36.4645C37.1637 35.7653 38.0546 35.2891 39.0245 35.0961C39.9944 34.9032 40.9998 35.0022 41.9134 35.3807C42.827 35.7591 43.6079 36.4 44.1573 37.2222C44.7067 38.0444 45 39.0111 45 40.0001C45 41.3261 44.4732 42.5979 43.5355 43.5356C42.5978 44.4733 41.3261 45.0001 40 45.0001ZM57.1781 36.7516C57.1433 36.5756 57.071 36.4091 56.9661 36.2635C56.8612 36.1179 56.7262 35.9966 56.5703 35.9079L51.9094 33.2516L51.8906 27.9985C51.8901 27.8176 51.8502 27.6389 51.7739 27.4749C51.6975 27.3109 51.5865 27.1654 51.4484 27.0485C49.7577 25.6183 47.8107 24.5223 45.7109 23.8188C45.5456 23.7628 45.3703 23.7421 45.1965 23.758C45.0226 23.7739 44.854 23.826 44.7016 23.911L40 26.5391L35.2937 23.9063C35.1412 23.8208 34.9724 23.7683 34.7982 23.7522C34.6241 23.736 34.4485 23.7566 34.2828 23.8126C32.1846 24.5212 30.2398 25.6214 28.5516 27.0547C28.4137 27.1715 28.3028 27.3167 28.2264 27.4805C28.1501 27.6442 28.1102 27.8225 28.1094 28.0032L28.0859 33.261L23.425 35.9172C23.2691 36.006 23.1341 36.1273 23.0292 36.2729C22.9243 36.4185 22.852 36.585 22.8172 36.761C22.3906 38.9046 22.3906 41.1112 22.8172 43.2547C22.852 43.4308 22.9243 43.5972 23.0292 43.7428C23.1341 43.8884 23.2691 44.0097 23.425 44.0985L28.0859 46.7547L28.1047 52.0079C28.1052 52.1888 28.1451 52.3674 28.2214 52.5314C28.2978 52.6955 28.4088 52.8409 28.5469 52.9579C30.2376 54.388 32.1846 55.484 34.2844 56.1876C34.4497 56.2435 34.625 56.2642 34.7988 56.2484C34.9727 56.2325 35.1413 56.1804 35.2937 56.0954L40 53.461L44.7062 56.0938C44.8925 56.1976 45.1024 56.2514 45.3156 56.2501C45.4521 56.25 45.5877 56.2278 45.7172 56.1844C47.8151 55.4767 49.7599 54.3776 51.4484 52.9454C51.5863 52.8286 51.6972 52.6834 51.7736 52.5196C51.8499 52.3559 51.8898 52.1776 51.8906 51.9969L51.9141 46.7391L56.575 44.0829C56.7309 43.9941 56.8659 43.8728 56.9708 43.7272C57.0757 43.5816 57.148 43.4151 57.1828 43.2391C57.607 41.0973 57.6054 38.8929 57.1781 36.7516ZM54.8344 42.2063L50.3703 44.7454C50.1747 44.8566 50.0128 45.0185 49.9016 45.2141C49.8109 45.3704 49.7156 45.536 49.6187 45.6922C49.4947 45.8893 49.4287 46.1172 49.4281 46.3501L49.4047 51.3891C48.2048 52.3314 46.868 53.0849 45.4406 53.6235L40.9375 51.1141C40.7505 51.0107 40.5402 50.9569 40.3266 50.9579H40.2969C40.1078 50.9579 39.9172 50.9579 39.7281 50.9579C39.5045 50.9523 39.2834 51.0062 39.0875 51.1141L34.5812 53.6297C33.1508 53.0952 31.8103 52.3455 30.6062 51.4063L30.5891 46.3751C30.5883 46.1418 30.5223 45.9134 30.3984 45.7157C30.3016 45.5594 30.2062 45.4032 30.1172 45.2376C30.0067 45.0389 29.8448 44.8738 29.6484 44.7594L25.1797 42.2141C24.9484 40.7513 24.9484 39.2613 25.1797 37.7985L29.6359 35.2547C29.8315 35.1435 29.9935 34.9816 30.1047 34.786C30.1953 34.6297 30.2906 34.4641 30.3875 34.3079C30.5115 34.1108 30.5776 33.8829 30.5781 33.6501L30.6016 28.611C31.8014 27.6687 33.1382 26.9152 34.5656 26.3766L39.0625 28.886C39.2582 28.9945 39.4794 29.0484 39.7031 29.0422C39.8922 29.0422 40.0828 29.0422 40.2719 29.0422C40.4955 29.0478 40.7166 28.9939 40.9125 28.886L45.4187 26.3704C46.8492 26.9049 48.1896 27.6546 49.3937 28.5938L49.4109 33.6251C49.4117 33.8583 49.4777 34.0867 49.6016 34.2844C49.6984 34.4407 49.7937 34.5969 49.8828 34.7626C49.9932 34.9612 50.1552 35.1263 50.3516 35.2407L54.8203 37.786C55.0546 39.2499 55.0573 40.7416 54.8281 42.2063H54.8344Z" fill="#FACCC0"/>
</svg>
