<svg width="80" height="80" viewBox="0 0 80 80" fill="none" xmlns="http://www.w3.org/2000/svg">
<rect width="80" height="80" rx="20" fill="white" fill-opacity="0.12"/>
<path d="M53.3844 32.8656L44.6344 24.1156C44.5182 23.9996 44.3803 23.9076 44.2286 23.8448C44.0768 23.7821 43.9142 23.7499 43.75 23.75H28.75C28.087 23.75 27.4511 24.0134 26.9822 24.4822C26.5134 24.9511 26.25 25.587 26.25 26.25V53.75C26.25 54.413 26.5134 55.0489 26.9822 55.5178C27.4511 55.9866 28.087 56.25 28.75 56.25H51.25C51.913 56.25 52.5489 55.9866 53.0178 55.5178C53.4866 55.0489 53.75 54.413 53.75 53.75V33.75C53.7501 33.5858 53.7179 33.4232 53.6552 33.2714C53.5924 33.1197 53.5004 32.9818 53.3844 32.8656ZM45 28.0172L49.4828 32.5H45V28.0172ZM51.25 53.75H28.75V26.25H42.5V33.75C42.5 34.0815 42.6317 34.3995 42.8661 34.6339C43.1005 34.8683 43.4185 35 43.75 35H51.25V53.75ZM46.25 41.25C46.25 41.5815 46.1183 41.8995 45.8839 42.1339C45.6495 42.3683 45.3315 42.5 45 42.5H35C34.6685 42.5 34.3505 42.3683 34.1161 42.1339C33.8817 41.8995 33.75 41.5815 33.75 41.25C33.75 40.9185 33.8817 40.6005 34.1161 40.3661C34.3505 40.1317 34.6685 40 35 40H45C45.3315 40 45.6495 40.1317 45.8839 40.3661C46.1183 40.6005 46.25 40.9185 46.25 41.25ZM46.25 46.25C46.25 46.5815 46.1183 46.8995 45.8839 47.1339C45.6495 47.3683 45.3315 47.5 45 47.5H35C34.6685 47.5 34.3505 47.3683 34.1161 47.1339C33.8817 46.8995 33.75 46.5815 33.75 46.25C33.75 45.9185 33.8817 45.6005 34.1161 45.3661C34.3505 45.1317 34.6685 45 35 45H45C45.3315 45 45.6495 45.1317 45.8839 45.3661C46.1183 45.6005 46.25 45.9185 46.25 46.25Z" fill="#343330"/>
<path d="M53.3844 32.8656L44.6344 24.1156C44.5182 23.9996 44.3803 23.9076 44.2286 23.8448C44.0768 23.7821 43.9142 23.7499 43.75 23.75H28.75C28.087 23.75 27.4511 24.0134 26.9822 24.4822C26.5134 24.9511 26.25 25.587 26.25 26.25V53.75C26.25 54.413 26.5134 55.0489 26.9822 55.5178C27.4511 55.9866 28.087 56.25 28.75 56.25H51.25C51.913 56.25 52.5489 55.9866 53.0178 55.5178C53.4866 55.0489 53.75 54.413 53.75 53.75V33.75C53.7501 33.5858 53.7179 33.4232 53.6552 33.2714C53.5924 33.1197 53.5004 32.9818 53.3844 32.8656ZM45 28.0172L49.4828 32.5H45V28.0172ZM51.25 53.75H28.75V26.25H42.5V33.75C42.5 34.0815 42.6317 34.3995 42.8661 34.6339C43.1005 34.8683 43.4185 35 43.75 35H51.25V53.75ZM46.25 41.25C46.25 41.5815 46.1183 41.8995 45.8839 42.1339C45.6495 42.3683 45.3315 42.5 45 42.5H35C34.6685 42.5 34.3505 42.3683 34.1161 42.1339C33.8817 41.8995 33.75 41.5815 33.75 41.25C33.75 40.9185 33.8817 40.6005 34.1161 40.3661C34.3505 40.1317 34.6685 40 35 40H45C45.3315 40 45.6495 40.1317 45.8839 40.3661C46.1183 40.6005 46.25 40.9185 46.25 41.25ZM46.25 46.25C46.25 46.5815 46.1183 46.8995 45.8839 47.1339C45.6495 47.3683 45.3315 47.5 45 47.5H35C34.6685 47.5 34.3505 47.3683 34.1161 47.1339C33.8817 46.8995 33.75 46.5815 33.75 46.25C33.75 45.9185 33.8817 45.6005 34.1161 45.3661C34.3505 45.1317 34.6685 45 35 45H45C45.3315 45 45.6495 45.1317 45.8839 45.3661C46.1183 45.6005 46.25 45.9185 46.25 46.25Z" fill="#FACCC0"/>
</svg>
