<svg width="20" height="20" viewBox="0 0 20 20" fill="none" xmlns="http://www.w3.org/2000/svg">
<path d="M16.875 3.125H3.125C2.79348 3.125 2.47554 3.2567 2.24112 3.49112C2.0067 3.72554 1.875 4.04348 1.875 4.375V15.625C1.875 15.9565 2.0067 16.2745 2.24112 16.5089C2.47554 16.7433 2.79348 16.875 3.125 16.875H16.875C17.2065 16.875 17.5245 16.7433 17.7589 16.5089C17.9933 16.2745 18.125 15.9565 18.125 15.625V4.375C18.125 4.04348 17.9933 3.72554 17.7589 3.49112C17.5245 3.2567 17.2065 3.125 16.875 3.125ZM6.25 15H5C4.66848 15 4.35054 14.8683 4.11612 14.6339C3.8817 14.3995 3.75 14.0815 3.75 13.75V11.25C3.75 11.0842 3.81585 10.9253 3.93306 10.8081C4.05027 10.6908 4.20924 10.625 4.375 10.625C4.54076 10.625 4.69973 10.6908 4.81694 10.8081C4.93415 10.9253 5 11.0842 5 11.25V13.75H6.25C6.41576 13.75 6.57473 13.8158 6.69194 13.9331C6.80915 14.0503 6.875 14.2092 6.875 14.375C6.875 14.5408 6.80915 14.6997 6.69194 14.8169C6.57473 14.9342 6.41576 15 6.25 15ZM6.25 6.25H5V8.75C5 8.91576 4.93415 9.07473 4.81694 9.19194C4.69973 9.30915 4.54076 9.375 4.375 9.375C4.20924 9.375 4.05027 9.30915 3.93306 9.19194C3.81585 9.07473 3.75 8.91576 3.75 8.75V6.25C3.75 5.91848 3.8817 5.60054 4.11612 5.36612C4.35054 5.1317 4.66848 5 5 5H6.25C6.41576 5 6.57473 5.06585 6.69194 5.18306C6.80915 5.30027 6.875 5.45924 6.875 5.625C6.875 5.79076 6.80915 5.94973 6.69194 6.06694C6.57473 6.18415 6.41576 6.25 6.25 6.25ZM11.25 15H8.75C8.58424 15 8.42527 14.9342 8.30806 14.8169C8.19085 14.6997 8.125 14.5408 8.125 14.375C8.125 14.2092 8.19085 14.0503 8.30806 13.9331C8.42527 13.8158 8.58424 13.75 8.75 13.75H11.25C11.4158 13.75 11.5747 13.8158 11.6919 13.9331C11.8092 14.0503 11.875 14.2092 11.875 14.375C11.875 14.5408 11.8092 14.6997 11.6919 14.8169C11.5747 14.9342 11.4158 15 11.25 15ZM11.25 6.25H8.75C8.58424 6.25 8.42527 6.18415 8.30806 6.06694C8.19085 5.94973 8.125 5.79076 8.125 5.625C8.125 5.45924 8.19085 5.30027 8.30806 5.18306C8.42527 5.06585 8.58424 5 8.75 5H11.25C11.4158 5 11.5747 5.06585 11.6919 5.18306C11.8092 5.30027 11.875 5.45924 11.875 5.625C11.875 5.79076 11.8092 5.94973 11.6919 6.06694C11.5747 6.18415 11.4158 6.25 11.25 6.25ZM16.25 13.75C16.25 14.0815 16.1183 14.3995 15.8839 14.6339C15.6495 14.8683 15.3315 15 15 15H13.75C13.5842 15 13.4253 14.9342 13.3081 14.8169C13.1908 14.6997 13.125 14.5408 13.125 14.375C13.125 14.2092 13.1908 14.0503 13.3081 13.9331C13.4253 13.8158 13.5842 13.75 13.75 13.75H15V11.25C15 11.0842 15.0658 10.9253 15.1831 10.8081C15.3003 10.6908 15.4592 10.625 15.625 10.625C15.7908 10.625 15.9497 10.6908 16.0669 10.8081C16.1842 10.9253 16.25 11.0842 16.25 11.25V13.75ZM16.25 8.75C16.25 8.91576 16.1842 9.07473 16.0669 9.19194C15.9497 9.30915 15.7908 9.375 15.625 9.375C15.4592 9.375 15.3003 9.30915 15.1831 9.19194C15.0658 9.07473 15 8.91576 15 8.75V6.25H13.75C13.5842 6.25 13.4253 6.18415 13.3081 6.06694C13.1908 5.94973 13.125 5.79076 13.125 5.625C13.125 5.45924 13.1908 5.30027 13.3081 5.18306C13.4253 5.06585 13.5842 5 13.75 5H15C15.3315 5 15.6495 5.1317 15.8839 5.36612C16.1183 5.60054 16.25 5.91848 16.25 6.25V8.75Z" fill="white"/>
</svg>
