<svg width="32" height="32" viewBox="0 0 32 32" fill="none" xmlns="http://www.w3.org/2000/svg">
<path d="M26.2071 15.2925C26.3 15.3854 26.3738 15.4957 26.4241 15.6171C26.4744 15.7385 26.5003 15.8686 26.5003 16C26.5003 16.1314 26.4744 16.2616 26.4241 16.383C26.3738 16.5044 26.3 16.6146 26.2071 16.7075L15.9508 26.9575C14.6378 28.2703 12.8571 29.0078 11.0004 29.0077C9.14363 29.0076 7.363 28.2699 6.05017 26.9569C4.73735 25.6439 3.99988 23.8632 4 22.0065C4.00012 20.1497 4.73781 18.3691 6.0508 17.0563L18.4583 4.46627C19.3957 3.5279 20.6674 3.00034 21.9938 2.99963C23.3201 2.99893 24.5924 3.52515 25.5308 4.46252C26.4692 5.3999 26.9967 6.67164 26.9974 7.998C26.9981 9.32435 26.4719 10.5967 25.5345 11.535L13.1245 24.125C12.561 24.6886 11.7966 25.0052 10.9995 25.0052C10.2025 25.0052 9.43813 24.6886 8.87455 24.125C8.31096 23.5614 7.99435 22.7971 7.99435 22C7.99435 21.203 8.31096 20.4386 8.87455 19.875L19.287 9.29752C19.3783 9.20022 19.488 9.12215 19.6099 9.06789C19.7317 9.01364 19.8632 8.98431 19.9965 8.98163C20.1298 8.97895 20.2624 9.00296 20.3863 9.05227C20.5102 9.10157 20.623 9.17516 20.7181 9.26872C20.8131 9.36227 20.8885 9.47389 20.9398 9.59702C20.9911 9.72014 21.0172 9.85227 21.0166 9.98564C21.016 10.119 20.9888 10.2509 20.9365 10.3736C20.8842 10.4963 20.8079 10.6073 20.712 10.7L10.2983 21.2888C10.2051 21.3813 10.131 21.4912 10.0802 21.6124C10.0295 21.7335 10.0031 21.8635 10.0026 21.9948C10.002 22.1261 10.0274 22.2563 10.0772 22.3778C10.1269 22.4994 10.2002 22.6099 10.2927 22.7031C10.3852 22.7964 10.4951 22.8705 10.6163 22.9212C10.7374 22.972 10.8674 22.9984 10.9987 22.9989C11.13 22.9994 11.2602 22.9741 11.3817 22.9243C11.5033 22.8745 11.6138 22.8013 11.707 22.7088L24.1158 10.125C24.6794 9.5626 24.9965 8.79932 24.9973 8.00312C24.9981 7.20691 24.6826 6.44298 24.1202 5.8794C23.5577 5.31581 22.7945 4.99873 21.9983 4.99791C21.2021 4.99709 20.4381 5.3126 19.8745 5.87502L7.46955 18.46C7.00483 18.924 6.63606 19.475 6.38427 20.0815C6.13249 20.688 6.00263 21.3381 6.0021 21.9948C6.00158 22.6515 6.13041 23.3018 6.38123 23.9087C6.63205 24.5156 6.99995 25.0672 7.46392 25.5319C7.9279 25.9966 8.47887 26.3654 9.08536 26.6172C9.69186 26.869 10.342 26.9988 10.9987 26.9993C11.6554 26.9999 12.3057 26.871 12.9126 26.6202C13.5195 26.3694 14.0711 26.0015 14.5358 25.5375L24.7933 15.2875C24.9815 15.1008 25.2361 14.9964 25.5012 14.9974C25.7663 14.9983 26.0202 15.1045 26.2071 15.2925Z" fill="#FACCC0"/>
</svg>
