<svg width="120" height="120" viewBox="0 0 120 120" fill="none" xmlns="http://www.w3.org/2000/svg">
<rect width="120" height="120" rx="60" fill="#000624"/>
<path d="M80.6895 25.8312H67.4211V31.9028H80.5961C81.92 31.9028 83.2364 32.101 84.5021 32.4908L84.841 32.5951C86.1983 33.0131 87.4662 33.6812 88.5799 34.5653C89.7625 35.5041 90.7486 36.6685 91.4814 37.9914L91.5829 38.1747C92.3264 39.5169 92.8178 40.985 93.0326 42.5057L93.0813 42.8502C93.271 44.1928 93.271 45.5555 93.0813 46.898L93.0326 47.2426C92.8178 48.7632 92.3264 50.2313 91.5829 51.5735L91.4814 51.7568C90.7486 53.0797 89.7625 54.2441 88.5799 55.1829C87.4662 56.067 86.1983 56.7351 84.841 57.1531L84.5021 57.2575C83.2364 57.6472 81.92 57.8454 80.5961 57.8454H67.3111V63.917H80.2842L93.3673 85.775H99.9637L86.4409 63.0339L86.5289 63.0063C87.6406 62.6574 88.7178 62.2062 89.7468 61.6584L90.071 61.4858C91.0199 60.9805 91.9136 60.3771 92.7375 59.6852C93.7396 58.8437 94.6311 57.8776 95.3905 56.8103L95.6087 56.5035C96.1658 55.7205 96.6609 54.8948 97.0896 54.0341L97.1746 53.8634C97.8591 52.4889 98.385 51.0404 98.742 49.546C98.9698 48.5924 99.1281 47.6234 99.2157 46.6467L99.2562 46.1941C99.3612 45.0221 99.3602 43.843 99.2532 42.6713L99.2288 42.4042C99.1326 41.3516 98.9369 40.3105 98.6443 39.2951C98.2792 38.0284 97.7656 36.8097 97.1143 35.6646L96.9335 35.3467C96.4656 34.524 95.9344 33.7392 95.3447 32.9996C94.3553 31.7586 93.2081 30.6532 91.9325 29.7117L91.4977 29.3908C89.9867 28.2755 88.3135 27.4008 86.537 26.7974C84.6533 26.1575 82.6781 25.8312 80.6895 25.8312Z" fill="url(#paint0_linear_1028_482)"/>
<path d="M25.827 85.9958H19.3766L26.4129 69.4367L32.7895 69.5471L25.827 85.9958Z" fill="url(#paint1_linear_1028_482)"/>
<path d="M44.5532 25.5L30.0409 60.9364C30.0409 60.9364 31.8495 60.8079 33.0094 60.826C33.8261 60.8388 35.0982 60.9364 35.0982 60.9364L35.7579 61.0468L36.1977 61.1572L44.7731 40.7343L57.1965 70.0991L66.3216 77.1643L65.0023 74.1837V25.8312H56.2899L52.7988 31.9028H59.1754V59.7221L44.5532 25.5Z" fill="url(#paint2_linear_1028_482)"/>
<path d="M15.3088 69.3263L13 71.4238L15.7485 70.2095L18.3871 68.9951C20.3623 68.3341 22.3844 67.8171 24.4339 67.4496L27.952 67.2288H29.6012L31.2503 67.3392L32.8994 67.56L34.1088 67.8912L36.8573 68.664L39.8257 69.7679L42.7942 70.9822L48.2912 74.0733L53.3485 77.4955L58.186 81.2489L67.2012 87.7621L72.0386 90.5219L75.0119 91.8559C76.4722 92.5111 77.9819 93.0493 79.5268 93.4654L79.5833 93.4807C81.0014 93.8627 82.446 94.1381 83.9049 94.3046L84.038 94.3198C85.7099 94.5105 87.3954 94.55 89.0744 94.4376L89.4013 94.4157C90.7966 94.3223 92.1814 94.108 93.54 93.7753C95.1794 93.3738 96.7727 92.8018 98.294 92.0685L99.0124 91.7223C100.67 90.9235 102.255 89.9825 103.751 88.9096L104.581 88.3141L105.013 87.9732C105.749 87.3928 106.416 86.7293 107 85.9958L104.471 87.3205L101.833 88.5348L99.6339 89.3076L96.5556 89.97C93.7013 90.1904 90.8344 90.1904 87.9801 89.97L87.8578 89.9441C85.1592 89.3736 82.5149 88.5697 79.9544 87.5413L72.5883 83.8983L66.2117 79.5929L52.9088 69.8783L49.3906 67.6704L45.4327 65.7937L41.5848 64.3586L37.6269 63.4755L33.669 63.0339H31.5801L29.4912 63.1443L27.5123 63.4755L26.3029 63.8066L24.7637 64.2482L23.3345 64.6898L20.586 65.9041L17.8374 67.4496L15.3088 69.3263Z" fill="url(#paint3_linear_1028_482)"/>
<defs>
<linearGradient id="paint0_linear_1028_482" x1="60" y1="25.5" x2="60" y2="94.5" gradientUnits="userSpaceOnUse">
<stop stop-color="#E0A394"/>
<stop offset="0.25" stop-color="#E5AB9D"/>
<stop offset="0.5" stop-color="#FFD7CD"/>
<stop offset="0.75" stop-color="#DC9F90"/>
<stop offset="1" stop-color="#CD8A77"/>
</linearGradient>
<linearGradient id="paint1_linear_1028_482" x1="60" y1="25.5" x2="60" y2="94.5" gradientUnits="userSpaceOnUse">
<stop stop-color="#E0A394"/>
<stop offset="0.25" stop-color="#E5AB9D"/>
<stop offset="0.5" stop-color="#FFD7CD"/>
<stop offset="0.75" stop-color="#DC9F90"/>
<stop offset="1" stop-color="#CD8A77"/>
</linearGradient>
<linearGradient id="paint2_linear_1028_482" x1="60" y1="25.5" x2="60" y2="94.5" gradientUnits="userSpaceOnUse">
<stop stop-color="#E0A394"/>
<stop offset="0.25" stop-color="#E5AB9D"/>
<stop offset="0.5" stop-color="#FFD7CD"/>
<stop offset="0.75" stop-color="#DC9F90"/>
<stop offset="1" stop-color="#CD8A77"/>
</linearGradient>
<linearGradient id="paint3_linear_1028_482" x1="60" y1="25.5" x2="60" y2="94.5" gradientUnits="userSpaceOnUse">
<stop stop-color="#E0A394"/>
<stop offset="0.25" stop-color="#E5AB9D"/>
<stop offset="0.5" stop-color="#FFD7CD"/>
<stop offset="0.75" stop-color="#DC9F90"/>
<stop offset="1" stop-color="#CD8A77"/>
</linearGradient>
</defs>
</svg>
