<svg width="68" height="50" viewBox="0 0 68 50" fill="none" xmlns="http://www.w3.org/2000/svg">
<path d="M48.9669 0.239986H39.3684V4.63974H48.8993C49.857 4.63974 50.8093 4.78332 51.7249 5.06576L51.9701 5.14139C52.952 5.44427 53.8692 5.9284 54.6748 6.56904C55.5303 7.24934 56.2437 8.09309 56.7738 9.05174L56.8472 9.18454C57.385 10.1572 57.7405 11.221 57.8959 12.3229L57.9312 12.5726C58.0684 13.5455 58.0684 14.5329 57.9312 15.5058L57.8959 15.7555C57.7405 16.8574 57.385 17.9212 56.8472 18.8939L56.7738 19.0267C56.2437 19.9853 55.5303 20.8291 54.6748 21.5094C53.8692 22.15 52.952 22.6341 51.9701 22.937L51.7249 23.0127C50.8093 23.2951 49.857 23.4387 48.8993 23.4387H39.2889V27.8384H48.6737L58.138 43.6775H62.9099L53.1275 27.1985L53.1911 27.1785C53.9953 26.9257 54.7746 26.5987 55.519 26.2017L55.7535 26.0766C56.4399 25.7105 57.0864 25.2732 57.6825 24.7719C58.4074 24.1621 59.0523 23.462 59.6016 22.6886L59.7595 22.4663C60.1625 21.8989 60.5207 21.3006 60.8307 20.6769L60.8922 20.5532C61.3874 19.5572 61.7678 18.5075 62.0261 17.4247C62.1909 16.7336 62.3055 16.0315 62.3688 15.3237L62.3981 14.9957C62.4741 14.1465 62.4733 13.2921 62.3959 12.443L62.3783 12.2494C62.3087 11.4867 62.1671 10.7323 61.9554 9.99648C61.6913 9.07856 61.3198 8.19542 60.8487 7.36563L60.7179 7.13527C60.3794 6.5391 59.9951 5.97044 59.5685 5.43449C58.8528 4.53522 58.0229 3.73422 57.1001 3.05196L56.7856 2.81943C55.6925 2.01125 54.4821 1.37737 53.197 0.940124C51.8343 0.476483 50.4054 0.239986 48.9669 0.239986Z" fill="url(#paint0_linear_1028_520)"/>
<path d="M9.27913 43.8375H4.61287L9.70292 31.8382L14.3158 31.9182L9.27913 43.8375Z" fill="url(#paint1_linear_1028_520)"/>
<path d="M22.8257 0L12.3275 25.6786C12.3275 25.6786 13.6358 25.5854 14.4749 25.5986C15.0657 25.6078 15.986 25.6786 15.986 25.6786L16.4632 25.7585L16.7813 25.8385L22.9848 11.0394L31.9719 32.3182L38.5731 37.4379L37.6187 35.278V0.239986H31.3161L28.7906 4.63974H33.4035V24.7986L22.8257 0Z" fill="url(#paint2_linear_1028_520)"/>
<path d="M1.67018 31.7582L0 33.2781L1.9883 32.3982L3.89708 31.5182C5.32589 31.0392 6.7887 30.6646 8.27134 30.3983L10.8164 30.2383H12.0094L13.2023 30.3183L14.3953 30.4783L15.2702 30.7183L17.2585 31.2782L19.4058 32.0782L21.5532 32.9581L25.5298 35.198L29.1883 37.6779L32.6877 40.3977L39.2094 45.1175L42.7088 47.1173L44.8597 48.084C45.9161 48.5587 47.0082 48.9487 48.1257 49.2503L48.1666 49.2613C49.1925 49.5382 50.2375 49.7378 51.2929 49.8584L51.3892 49.8694C52.5986 50.0076 53.818 50.0362 55.0325 49.9548L55.269 49.9389C56.2784 49.8712 57.2801 49.716 58.263 49.4748C59.449 49.1839 60.6015 48.7694 61.7021 48.2381L62.2218 47.9872C63.4206 47.4084 64.5675 46.7264 65.6496 45.949L66.2503 45.5174L66.5629 45.2704C67.095 44.8499 67.5772 44.3691 68 43.8375L66.1708 44.7975L64.262 45.6774L62.6713 46.2374L60.4444 46.7174C58.3797 46.8771 56.3057 46.8771 54.2409 46.7174L54.1525 46.6986C52.2003 46.2853 50.2874 45.7027 48.4351 44.9575L43.1064 42.3176L38.4936 39.1978L28.8702 32.1582L26.3251 30.5583L23.462 29.1984L20.6784 28.1584L17.8152 27.5184L14.952 27.1985H13.4409L11.9298 27.2785L10.4982 27.5184L9.62339 27.7584L8.50994 28.0784L7.47602 28.3984L5.48772 29.2783L3.49942 30.3983L1.67018 31.7582Z" fill="url(#paint3_linear_1028_520)"/>
<defs>
<linearGradient id="paint0_linear_1028_520" x1="34" y1="0" x2="34" y2="50" gradientUnits="userSpaceOnUse">
<stop stop-color="#E0A394"/>
<stop offset="0.25" stop-color="#E5AB9D"/>
<stop offset="0.5" stop-color="#FFD7CD"/>
<stop offset="0.75" stop-color="#DC9F90"/>
<stop offset="1" stop-color="#CD8A77"/>
</linearGradient>
<linearGradient id="paint1_linear_1028_520" x1="34" y1="0" x2="34" y2="50" gradientUnits="userSpaceOnUse">
<stop stop-color="#E0A394"/>
<stop offset="0.25" stop-color="#E5AB9D"/>
<stop offset="0.5" stop-color="#FFD7CD"/>
<stop offset="0.75" stop-color="#DC9F90"/>
<stop offset="1" stop-color="#CD8A77"/>
</linearGradient>
<linearGradient id="paint2_linear_1028_520" x1="34" y1="0" x2="34" y2="50" gradientUnits="userSpaceOnUse">
<stop stop-color="#E0A394"/>
<stop offset="0.25" stop-color="#E5AB9D"/>
<stop offset="0.5" stop-color="#FFD7CD"/>
<stop offset="0.75" stop-color="#DC9F90"/>
<stop offset="1" stop-color="#CD8A77"/>
</linearGradient>
<linearGradient id="paint3_linear_1028_520" x1="34" y1="0" x2="34" y2="50" gradientUnits="userSpaceOnUse">
<stop stop-color="#E0A394"/>
<stop offset="0.25" stop-color="#E5AB9D"/>
<stop offset="0.5" stop-color="#FFD7CD"/>
<stop offset="0.75" stop-color="#DC9F90"/>
<stop offset="1" stop-color="#CD8A77"/>
</linearGradient>
</defs>
</svg>
