<svg width="487" height="356" viewBox="0 0 487 356" fill="none" xmlns="http://www.w3.org/2000/svg">
<path d="M350.689 1.7087H281.947V33.0349H350.205C357.064 33.0349 363.884 34.0573 370.442 36.0682L372.198 36.6067C379.23 38.7632 385.798 42.2102 391.568 46.7715C397.695 51.6153 402.804 57.6228 406.6 64.4484L407.126 65.3939C410.978 72.3192 413.524 79.8935 414.637 87.7393L414.889 89.5171C415.872 96.4438 415.872 103.475 414.889 110.401L414.637 112.179C413.524 120.025 410.978 127.599 407.126 134.524L406.6 135.47C402.804 142.295 397.695 148.303 391.568 153.147C385.798 157.708 379.23 161.155 372.198 163.312L370.442 163.85C363.884 165.861 357.064 166.883 350.205 166.883H281.378V198.21H348.589L416.371 310.984H450.546L380.487 193.653L380.942 193.511C386.702 191.711 392.283 189.383 397.614 186.556L399.293 185.666C404.209 183.059 408.84 179.945 413.108 176.376C418.3 172.034 422.919 167.05 426.853 161.543L427.983 159.96C430.87 155.92 433.435 151.66 435.655 147.219L436.096 146.339C439.642 139.247 442.367 131.774 444.217 124.064C445.397 119.144 446.217 114.144 446.67 109.105L446.881 106.769C447.425 100.723 447.419 94.6394 446.865 88.5939L446.738 87.216C446.24 81.785 445.226 76.4138 443.71 71.1749C441.819 64.6393 439.158 58.3514 435.784 52.4433L434.847 50.8032C432.423 46.5584 429.671 42.5096 426.616 38.6936C421.49 32.2908 415.546 26.5877 408.937 21.73L406.685 20.0743C398.857 14.3201 390.188 9.80686 380.984 6.69369C371.225 3.39256 360.992 1.7087 350.689 1.7087Z" fill="#D9D9D9" fill-opacity="0.06"/>
<path d="M66.4549 312.123H33.0363L69.4901 226.688L102.526 227.258L66.4549 312.123Z" fill="#D9D9D9" fill-opacity="0.06"/>
<path d="M163.473 0L88.2865 182.831C88.2865 182.831 97.6563 182.168 103.665 182.262C107.897 182.328 114.488 182.831 114.488 182.831L117.905 183.401L120.184 183.97L164.612 78.6004L228.975 230.105L276.251 266.558L269.416 251.179V1.7087H224.279L206.192 33.0349H239.228V176.566L163.473 0Z" fill="#D9D9D9" fill-opacity="0.06"/>
<path d="M11.9614 226.118L0 236.94L14.2398 230.675L27.9099 224.41C38.1428 220.999 48.6191 218.332 59.2374 216.436L77.4643 215.297H86.0082L94.552 215.866L103.096 217.005L109.361 218.714L123.601 222.701L138.98 228.397L154.359 234.662L182.839 250.61L209.04 268.266L234.102 287.632L280.808 321.236L305.87 335.475L321.274 342.358C328.84 345.738 336.662 348.515 344.665 350.662L344.958 350.741C352.305 352.712 359.789 354.133 367.348 354.992L368.037 355.07C376.699 356.054 385.432 356.258 394.13 355.678L395.824 355.565C403.053 355.083 410.227 353.978 417.266 352.261C425.759 350.189 434.014 347.238 441.896 343.455L445.618 341.669C454.203 337.548 462.417 332.692 470.167 327.157L474.469 324.084L476.708 322.325C480.519 319.331 483.972 315.908 487 312.123L473.899 318.958L460.229 325.223L448.837 329.21L432.889 332.628C418.101 333.765 403.248 333.765 388.461 332.628L387.827 332.494C373.846 329.551 360.146 325.403 346.881 320.097L308.718 301.301L275.682 279.088L206.761 228.966L188.534 217.575L168.029 207.892L148.094 200.488L127.588 195.931L107.083 193.653H96.2608L85.4386 194.223L75.186 195.931L68.9205 197.64L60.9462 199.918L53.5415 202.197L39.3018 208.462L25.062 216.436L11.9614 226.118Z" fill="#D9D9D9" fill-opacity="0.06"/>
</svg>
