<svg width="92" height="20" viewBox="0 0 92 20" fill="none" xmlns="http://www.w3.org/2000/svg">
<g clip-path="url(#clip0_976_244)">
<path fill-rule="evenodd" clip-rule="evenodd" d="M4.58387 0.0638283C3.15706 0.274432 2.22624 0.70101 1.39919 1.52329C0.278003 2.63806 0.0220264 3.93739 0.612044 5.51833C0.996415 6.54826 2.33474 7.85712 4.85595 9.66839C7.10048 11.2809 8.09909 12.2131 8.62389 13.1857C8.96497 13.8178 9.00407 14.0099 8.95753 14.8257C8.89841 15.8636 8.69465 16.2317 7.8036 16.9105C6.75507 17.7091 4.73162 17.8436 2.88431 17.2374C2.08959 16.9766 1.50377 16.674 0.398009 15.9534L0.000244141 15.6942L0.533303 16.6755C1.13631 17.786 1.34426 17.933 2.85454 18.3162C4.24104 18.668 6.15653 18.6649 7.56089 18.3085C9.26519 17.876 10.3028 17.1691 10.9424 16.0044C11.2685 15.4105 11.3451 15.0909 11.3917 14.1288C11.517 11.5433 10.5997 10.3552 6.07211 7.239C5.03034 6.52195 3.91214 5.6841 3.58716 5.37698C2.28847 4.14987 2.15697 2.7547 3.24554 1.75336C4.34089 0.745708 6.85763 0.728258 8.83698 1.71457L9.54768 2.0688L9.07415 1.22893C8.64879 0.474835 8.54055 0.37403 8.01277 0.240205C7.11929 0.0137616 5.49075 -0.0701314 4.58387 0.0638283ZM22.4427 0.843695C19.2477 1.76504 17.1097 4.13121 16.398 7.53363C15.9195 9.82088 16.2033 12.0097 17.2546 14.1398C19.2299 18.1418 24.3008 19.7666 28.331 17.6888C31.9639 15.8156 33.7458 11.0242 32.4438 6.62947C31.607 3.80504 29.155 1.43671 26.4006 0.792419C25.2699 0.52799 23.4563 0.55148 22.4427 0.843695ZM84.5484 1.01014C84.2495 1.65806 77.4398 18.1834 77.4398 18.2606C77.4398 18.2959 77.6648 18.3061 77.9399 18.2832L78.44 18.2415L79.4736 15.7583L80.5073 13.2751H83.925H87.3426L88.3729 15.7919L89.403 18.3087H90.7273C91.4556 18.3087 92.0515 18.2595 92.0515 18.1997C92.0515 18.1397 91.1033 15.799 89.9442 12.9983C88.7851 10.1975 87.1677 6.27618 86.35 4.2841C85.5321 2.29215 84.8393 0.638594 84.8102 0.609735C84.7811 0.580876 84.6633 0.761144 84.5484 1.01014ZM39.1515 9.56866V18.3087L42.1618 18.304C45.5704 18.2987 46.7506 18.1458 48.0809 17.5374C49.253 17.0011 50.0131 16.3178 50.4735 15.3857C50.7987 14.7273 50.8531 14.4539 50.8538 13.474C50.8543 12.452 50.8072 12.2355 50.4098 11.4342C49.7359 10.0754 48.594 9.17349 46.8702 8.63886L46.133 8.41027L46.5739 8.1841C47.2232 7.85094 48.0655 7.05282 48.3484 6.50262C49.1584 4.92732 48.6296 2.89913 47.1565 1.93108C45.9457 1.13537 45.0735 0.960875 41.9589 0.891345L39.1515 0.828527V9.56866ZM57.4162 9.58383V18.3087H58.7015H59.9868V13.6778V9.04692H64.6545H69.3221V13.6826V18.3183L70.6089 18.2799L71.8955 18.2415L71.8984 9.58383L71.9011 0.926111L70.6116 0.887721L69.3221 0.849332V4.41121V7.97309H64.6545H59.9868V4.41604V0.858997H58.7015H57.4162V9.58383ZM23.423 1.66745C21.9892 2.02651 20.5838 3.22007 19.8143 4.73215C18.9941 6.3445 18.61 8.81967 18.8543 10.921C19.2711 14.5076 20.7718 16.7364 23.2447 17.4417C25.4814 18.0797 28.0256 16.8641 29.1786 14.6068C29.9701 13.0571 30.1545 12.1206 30.1545 9.65094C30.1545 7.88812 30.1001 7.17054 29.9154 6.49658C29.1185 3.58786 27.2133 1.73739 24.8704 1.59671C24.3537 1.56571 23.7024 1.59752 23.423 1.66745ZM41.7221 9.56369V17.3691H42.8948C44.5469 17.3691 45.642 17.15 46.4834 16.6512C47.08 16.2974 47.2762 16.076 47.6657 15.317C48.0846 14.5006 48.133 14.2932 48.1356 13.3041C48.1392 11.8781 47.8392 11.0019 47.0478 10.1288C46.5038 9.52839 45.4905 8.91349 44.4956 8.58007C44.2485 8.49712 44.2601 8.47148 44.6309 8.28195C45.6598 7.75645 46.1572 6.89886 46.2807 5.43725C46.3868 4.18249 46.1433 3.24088 45.5642 2.66638C45.0198 2.12611 44.4775 1.95846 42.9059 1.84437L41.7221 1.75846V9.56369ZM82.4755 8.47645C81.7217 10.3037 81.0652 11.9042 81.0167 12.0335C80.9344 12.2527 81.1231 12.2684 83.8292 12.2684C85.4247 12.2684 86.7611 12.2375 86.7993 12.1997C86.8801 12.1195 84.0393 5.16222 83.9239 5.15752C83.8813 5.15578 83.2294 6.6492 82.4755 8.47645ZM42.8863 27.9848C42.4692 29.033 42.128 29.9424 42.128 30.0056C42.128 30.0689 42.3058 30.1207 42.5232 30.1207C42.8522 30.1207 42.9331 30.0534 43.0074 29.7181C43.0956 29.3195 43.1058 29.3154 44.0032 29.3154C44.8864 29.3154 44.9138 29.3258 45.0631 29.7181C45.1875 30.0454 45.2941 30.1207 45.6328 30.1207H46.0494L45.8491 29.6174C45.739 29.3406 45.3876 28.4496 45.0683 27.6375C44.5139 26.2276 44.4687 26.1591 44.0662 26.1199L43.6446 26.079L42.8863 27.9848ZM32.5221 28.1744V30.1207H32.928C33.3298 30.1207 33.3339 30.1132 33.3339 29.3825V28.6442L33.7736 28.648C34.16 28.6513 34.2677 28.7409 34.6614 29.3862C35.0409 30.0087 35.1701 30.1207 35.507 30.1207C35.7256 30.1207 35.9045 30.0946 35.9045 30.0625C35.9045 30.0305 35.718 29.7068 35.4901 29.343L35.0758 28.6817L35.5071 28.2538C35.8923 27.8716 35.9302 27.7658 35.8623 27.2633C35.7429 26.3801 35.4491 26.2281 33.86 26.2281H32.5221V28.1744ZM37.7986 28.1789V30.1296L39.3206 30.0916C40.7397 30.0562 40.8427 30.0355 40.8427 29.7852C40.8427 29.5415 40.7395 29.5131 39.7265 29.4778L38.6103 29.4387V28.9807V28.5228L39.4559 28.4829C40.2155 28.4469 40.306 28.4121 40.3448 28.1409C40.3858 27.854 40.3435 27.8389 39.4992 27.8389H38.6103V27.2923V26.7457L39.3404 26.8362C40.3087 26.9563 40.9103 26.8219 40.9103 26.486C40.9103 26.2466 40.7987 26.2281 39.3545 26.2281H37.7986V28.1789ZM47.6751 28.1744V30.1207H49.0956H50.5162V29.7852C50.5162 29.4571 50.4936 29.4496 49.5015 29.4496H48.4868V27.8389V26.2281H48.0809H47.6751V28.1744ZM51.328 26.5637C51.328 26.8768 51.373 26.8993 52.0045 26.8993H52.6809V28.51V30.1207H53.0868H53.4927V28.51V26.8993H54.1692C54.8006 26.8993 54.8456 26.8768 54.8456 26.5637V26.2281H53.0868H51.328V26.5637ZM56.1986 26.3101C56.1986 26.3552 56.503 26.8922 56.8751 27.5033C57.4733 28.4861 57.5515 28.7014 57.5515 29.3676C57.5515 30.115 57.5546 30.1207 57.9574 30.1207C58.3586 30.1207 58.3633 30.1122 58.3633 29.3923C58.3633 28.7517 58.4465 28.5292 59.0536 27.5466C59.4332 26.9323 59.7717 26.3842 59.8057 26.3288C59.8396 26.2734 59.666 26.2288 59.4198 26.2297C59.0128 26.2312 58.9315 26.3046 58.5251 27.0386C58.2793 27.4826 58.0244 27.8128 57.9585 27.7724C57.8926 27.732 57.6479 27.368 57.4146 26.9636C57.0526 26.3359 56.9326 26.2281 56.5946 26.2281C56.3768 26.2281 56.1986 26.265 56.1986 26.3101ZM33.3339 27.4528V28.1406L34.0904 28.0783C34.8823 28.0132 35.087 27.8605 35.0907 27.3322C35.0931 26.9692 34.6525 26.765 33.8663 26.765H33.3339V27.4528ZM43.7157 27.8233C43.3907 28.7311 43.4058 28.7785 44.0221 28.7785C44.3645 28.7785 44.5636 28.7168 44.564 28.6107C44.5649 28.3685 44.1182 27.1677 44.0271 27.1677C43.9849 27.1677 43.8447 27.4628 43.7157 27.8233Z" fill="white"/>
</g>
<defs>
<clipPath id="clip0_976_244">
<rect width="92" height="20" fill="white"/>
</clipPath>
</defs>
</svg>
