<svg width="102" height="21" viewBox="0 0 102 21" fill="none" xmlns="http://www.w3.org/2000/svg">
<g clip-path="url(#clip0_976_182)">
<path d="M22.285 12.0273L24.514 6.19385L26.7214 12.0273H22.285ZM26.2929 3.81586C26.1298 3.41156 25.8899 3.09688 25.5597 2.9256C25.2649 2.78021 24.9327 2.70453 24.5867 2.70453C24.113 2.70453 23.6511 2.80013 23.2973 2.9256C23.2206 2.95747 23.1538 3.02718 23.1184 3.11281L17.3139 17.797C17.2726 17.8946 17.2844 18.0081 17.3414 18.0978C17.4063 18.1934 17.5045 18.2432 17.6146 18.2432H19.7355C19.8692 18.2432 19.9852 18.1635 20.0343 18.038L21.5066 14.2599H27.5254L29.0468 18.042C29.0979 18.1635 29.2119 18.2432 29.3416 18.2432H31.5156C31.6198 18.2432 31.724 18.1934 31.7829 18.0978C31.8399 18.0101 31.8517 17.8946 31.8085 17.797L26.2929 3.81586Z" fill="white"/>
<path d="M85.3664 15.9269H79.6189V11.3581H84.7177C84.8042 11.3581 84.8868 11.3243 84.9457 11.2605C85.0067 11.1988 85.0421 11.1171 85.0421 11.0255V9.3227C85.0421 9.23506 85.0067 9.14743 84.9457 9.09167C84.8907 9.03192 84.8042 8.99607 84.7177 8.99607H79.6189V5.08851H85.0303C85.6278 5.08652 86.1015 4.98096 86.4101 4.64039C86.6755 4.3536 86.8131 3.9732 86.8092 3.56292V3.3319C86.8092 2.95548 86.6362 2.77026 86.4436 2.77026H77.2169C77.1323 2.77026 77.0537 2.8081 76.9928 2.86387C76.9318 2.92561 76.9004 3.01125 76.9004 3.09689V17.9185C76.9004 18.0062 76.9318 18.0838 76.9928 18.1535C77.0537 18.2133 77.1323 18.2432 77.2169 18.2432H86.8269C86.9094 18.2432 86.988 18.2133 87.049 18.1535C87.1138 18.0838 87.1414 18.0062 87.1414 17.9185V17.4505C87.1473 17.0362 87.0175 16.6479 86.7207 16.3631C86.3964 16.0424 85.9305 15.9269 85.3664 15.9269Z" fill="white"/>
<path d="M72.448 15.9269H66.7004V11.3581H71.8032C71.8858 11.3581 71.9703 11.3243 72.0254 11.2605C72.0902 11.1988 72.1217 11.1171 72.1217 11.0255V9.3227C72.1217 9.23506 72.0902 9.14743 72.0254 9.09167C71.9703 9.03192 71.8858 8.99607 71.8032 8.99607H66.7004V5.08851H72.1099C72.7055 5.08652 73.1792 4.98096 73.4898 4.64039C73.7591 4.3536 73.8947 3.9732 73.8888 3.56292V3.3319C73.8888 2.96145 73.7119 2.77026 73.5173 2.77026H64.2984C64.2159 2.77026 64.1333 2.8081 64.0724 2.86387C64.0115 2.92561 63.9761 3.01125 63.9761 3.09689V17.9185C63.9761 18.0062 64.0115 18.0838 64.0724 18.1535C64.1333 18.2133 64.2159 18.2432 64.2984 18.2432H73.9084C73.991 18.2432 74.0696 18.2133 74.1286 18.1535C74.1856 18.0838 74.2269 18.0062 74.2269 17.9185V17.4505C74.2269 17.0362 74.0893 16.6479 73.8003 16.3631C73.476 16.0424 73.0141 15.9269 72.448 15.9269Z" fill="white"/>
<path d="M14.56 3.01721C14.3909 2.89772 14.2003 2.81208 14.0076 2.76826C13.8229 2.72245 13.644 2.70453 13.4769 2.70453C12.9442 2.70453 12.5825 2.71847 12.5825 3.10285V13.9373L5.42566 3.57288C5.23499 3.28409 5.01877 3.05306 4.75931 2.91166C4.48215 2.7583 4.16175 2.70453 3.77845 2.70453C3.26542 2.70453 2.87819 2.79216 2.75436 2.83C2.61873 2.87382 2.53027 2.99929 2.53027 3.14667V17.9185C2.53027 18.0062 2.56172 18.0838 2.61873 18.1535C2.67966 18.2133 2.75829 18.2432 2.84674 18.2432H4.78289C4.86545 18.2432 4.94801 18.2133 5.00894 18.1535C5.06595 18.0838 5.10133 18.0062 5.10133 17.9185V7.43263L12.6435 18.1117C12.7083 18.1974 12.8066 18.2432 12.9069 18.2432H14.8411C14.9217 18.2432 15.0081 18.2133 15.071 18.1535C15.1221 18.0838 15.1615 18.0062 15.1615 17.9185V4.42927C15.1615 4.10066 15.1123 3.81386 14.9944 3.56292C14.8863 3.33786 14.7447 3.14866 14.56 3.01721Z" fill="white"/>
<path d="M46.0258 17.6118L39.5786 9.95999L45.5561 3.77203C45.6229 3.70232 45.6602 3.60473 45.6445 3.50714C45.6367 3.40158 45.5757 3.30798 45.4971 3.25818C45.3359 3.16458 44.8858 2.95745 44.528 2.84393C44.3334 2.7802 44.1349 2.74634 43.9442 2.74634C43.6592 2.74634 43.386 2.80808 43.1423 2.93952C42.8985 3.063 42.6548 3.26217 42.3835 3.52307L36.7874 9.32267V4.44121C36.7874 4.09068 36.7362 3.78796 36.6144 3.52307C36.4984 3.28408 36.349 3.0889 36.1485 2.94749C35.9736 2.82202 35.775 2.7324 35.5667 2.68062C35.378 2.63879 35.1932 2.61688 35.0124 2.61688C34.4423 2.61688 34.0649 2.63481 34.0649 3.03911V3.08093V17.9185C34.0649 18.0061 34.0964 18.0838 34.1613 18.1535C34.2163 18.2133 34.3048 18.2431 34.3893 18.2431H36.465C36.5495 18.2431 36.634 18.2133 36.691 18.1535C36.748 18.0838 36.7874 18.0061 36.7874 17.9185V10.7606L42.4621 17.4923C42.7196 17.801 43.0066 18.03 43.3113 18.1933C43.6337 18.3527 44.0229 18.4244 44.473 18.4244C45.0312 18.4244 45.6878 18.2192 45.8942 18.1376C45.9964 18.0978 46.0711 18.0161 46.0927 17.9066C46.1222 17.803 46.0927 17.6994 46.0258 17.6118Z" fill="white"/>
<path d="M61.0887 4.44121C61.0887 4.09068 61.0376 3.78796 60.9157 3.52307C60.8017 3.28408 60.6523 3.0889 60.4538 2.94749C60.2749 2.82202 60.0764 2.7324 59.868 2.68062C59.6773 2.63879 59.4926 2.61688 59.3137 2.61688C58.7496 2.61688 58.3702 2.63481 58.3702 3.03911V9.03389H51.4099V4.44121C51.4099 4.09068 51.3627 3.78796 51.2408 3.52307C51.1229 3.28408 50.9755 3.0889 50.7809 2.94749C50.6039 2.82202 50.3995 2.7324 50.1912 2.68062C50.0044 2.63879 49.8216 2.61688 49.6408 2.61688C49.0747 2.61688 48.6953 2.63481 48.6953 3.03911V17.9185C48.6953 18.0061 48.7268 18.0838 48.7877 18.1535C48.8486 18.2133 48.9312 18.2431 49.0078 18.2431H51.0934C51.1759 18.2431 51.2585 18.2133 51.3135 18.1535C51.3745 18.0838 51.4099 18.0061 51.4099 17.9185V11.378H58.3702V17.9185C58.3702 18.0061 58.4036 18.0838 58.4586 18.1535C58.5215 18.2133 58.608 18.2431 58.6886 18.2431H60.7683C60.8489 18.2431 60.9353 18.2133 60.9904 18.1535C61.0572 18.0838 61.0887 18.0061 61.0887 17.9185V4.44121Z" fill="white"/>
<path d="M99.0725 16.3432C98.7462 16.0265 98.2902 15.903 97.7398 15.903H92.5191V4.42131C92.5191 4.07278 92.468 3.76806 92.3422 3.50716C92.2321 3.26617 92.0788 3.069 91.8783 2.92959C91.7053 2.80412 91.5009 2.70852 91.2984 2.66271C91.1058 2.62089 90.921 2.59698 90.7402 2.59698C90.176 2.59698 89.7927 2.61292 89.7927 3.01921V17.9185C89.7927 18.0062 89.836 18.0918 89.891 18.1535C89.9539 18.2133 90.0345 18.2432 90.121 18.2432H99.1492C99.2317 18.2432 99.3182 18.2133 99.3772 18.1535C99.4342 18.0858 99.4696 18.0062 99.4696 17.9185V17.4087C99.4755 17.0044 99.3497 16.63 99.0725 16.3432Z" fill="white"/>
</g>
<defs>
<clipPath id="clip0_976_182">
<rect width="102" height="21" fill="white"/>
</clipPath>
</defs>
</svg>
