<svg width="71" height="19" viewBox="0 0 71 19" fill="none" xmlns="http://www.w3.org/2000/svg">
<g clip-path="url(#clip0_976_216)">
<mask id="mask0_976_216" style="mask-type:luminance" maskUnits="userSpaceOnUse" x="0" y="0" width="71" height="19">
<path d="M70.8439 0H0V19H70.8439V0Z" fill="white"/>
</mask>
<g mask="url(#mask0_976_216)">
<path d="M70.8447 18.8521C69.5637 18.8538 68.2834 18.8571 67.0007 18.8571C65.6382 18.8571 64.2751 18.8571 62.9109 18.8571C62.6175 18.8571 62.6175 18.8571 62.6192 18.5601C62.6192 12.4867 62.6204 6.41499 62.6157 0.341644C62.6157 0.135879 62.6814 0.0894168 62.8716 0.0910763C63.6619 0.0993728 64.4523 0.0943948 65.2427 0.0943948C65.5232 0.0943948 65.525 0.0943948 65.525 0.37981C65.5279 4.99955 65.5297 9.61928 65.5314 14.239C65.5314 14.7186 65.5314 15.1982 65.5314 15.6777C65.5314 15.925 65.5478 15.9415 65.8002 15.9415C67.3058 15.9415 68.8127 15.9415 70.3183 15.9482C70.4938 15.9482 70.6675 15.988 70.8429 16.0096V18.8472L70.8447 18.8521Z" fill="white"/>
<path d="M41.6956 10.7975C41.8809 9.94959 42.0646 9.10332 42.2499 8.25532C42.8288 5.60696 43.4077 2.95857 43.9817 0.308532C44.0177 0.144252 44.0801 0.0911514 44.2506 0.092811C45.4707 0.101108 46.6908 0.097789 47.9109 0.097789C48.2159 0.097789 48.2175 0.0977889 48.2175 0.404776C48.2175 2.59185 48.2175 4.77893 48.2175 6.96433C48.2175 10.8307 48.2175 14.6971 48.2175 18.5635C48.2175 18.8771 48.2044 18.8788 47.8945 18.8738C47.1106 18.8605 46.3267 18.8506 45.5428 18.8555C45.3297 18.8555 45.2805 18.7759 45.2805 18.5784C45.2854 15.3094 45.2854 12.0388 45.287 8.76975C45.287 8.38642 45.287 8.00476 45.287 7.57833C45.2116 7.85709 45.1345 8.09768 45.0804 8.34498C44.6721 10.2035 44.2686 12.0636 43.8636 13.9238C43.5389 15.4089 43.2093 16.8925 42.8878 18.3776C42.7731 18.9086 42.8813 18.8655 42.2794 18.8671C41.7891 18.8671 41.2972 18.8522 40.8068 18.8671C40.5805 18.8738 40.5034 18.7808 40.4592 18.5718C40.1246 16.9904 39.7802 15.4123 39.4375 13.8342C38.9996 11.8147 38.5618 9.79361 38.1239 7.77415C38.1158 7.73597 38.1043 7.69779 38.0944 7.65795C38.0747 7.65795 38.055 7.65795 38.0354 7.65629C38.0354 7.74262 38.0354 7.82889 38.0354 7.91516C38.0354 9.04685 38.0337 10.1769 38.0337 11.3086C38.0337 13.7147 38.0337 16.1208 38.0337 18.527C38.0337 18.8821 38.0337 18.8854 37.6894 18.8837C36.9121 18.8804 36.1347 18.8671 35.3591 18.8704C35.1491 18.8704 35.0967 18.7908 35.0967 18.59C35.1033 14.8946 35.1033 11.2007 35.1033 7.5053C35.1033 5.1191 35.1033 2.73456 35.0967 0.348357C35.0967 0.142593 35.1639 0.097789 35.3542 0.0994485C36.5873 0.106086 37.8222 0.107746 39.0554 0.09613C39.267 0.0944705 39.3063 0.208968 39.3407 0.363291C39.5179 1.17307 39.6917 1.98285 39.8704 2.79098C40.1427 4.02722 40.4198 5.26347 40.6904 6.50138C40.9938 7.8853 41.2906 9.27087 41.5923 10.6548C41.6038 10.7096 41.6251 10.7627 41.6415 10.8158C41.6595 10.8108 41.6776 10.8075 41.694 10.8025L41.6956 10.7975Z" fill="white"/>
<path d="M11.5375 9.47002C11.5375 6.42669 11.5375 3.38337 11.5342 0.338395C11.5342 0.152544 11.5802 0.0911465 11.7704 0.0928061C12.5739 0.102762 13.3791 0.0961245 14.1827 0.0977841C14.4368 0.0977841 14.4566 0.114378 14.4598 0.37988C14.4648 0.7632 14.4631 1.14818 14.4631 1.53149C14.4631 3.45141 14.4648 5.36966 14.4598 7.28959C14.4598 7.47377 14.509 7.51361 14.691 7.51195C15.7472 7.50031 16.8032 7.5053 17.861 7.5053C18.1267 7.5053 18.1283 7.50696 18.1283 7.21157C18.1283 5.03115 18.1283 2.85237 18.1283 0.671935C18.1283 0.5425 18.1365 0.411409 18.1283 0.281977C18.1201 0.137609 18.1824 0.0928061 18.3218 0.0944656C19.1598 0.0994436 19.9994 0.0994436 20.8374 0.0944656C20.9965 0.0944656 21.0588 0.150885 21.0555 0.308527C21.0506 0.540841 21.0555 0.774814 21.0555 1.00713C21.0555 6.82658 21.0555 12.6461 21.0555 18.4672C21.0555 18.8821 21.0555 18.8721 20.6439 18.8671C19.8944 18.8555 19.145 18.8571 18.3939 18.8539C18.1267 18.8539 18.1217 18.8489 18.1217 18.5751C18.1217 15.9433 18.1217 13.3115 18.1283 10.6781C18.1283 10.4723 18.0611 10.4208 17.8708 10.4208C16.8147 10.4258 15.757 10.4275 14.7009 10.4192C14.5107 10.4192 14.4598 10.4789 14.4598 10.6664C14.4648 13.2916 14.4631 15.9167 14.4615 18.5435C14.4615 18.8621 14.4483 18.8804 14.1302 18.8788C13.3463 18.8754 12.5624 18.8605 11.7786 18.8671C11.5507 18.8688 11.5293 18.7659 11.5293 18.58C11.5326 15.5434 11.5326 12.5067 11.5326 9.47002H11.5375Z" fill="white"/>
<path d="M50.064 18.8173C50.1214 18.4937 50.1772 18.1735 50.2345 17.8532C50.4624 16.5722 50.6921 15.2928 50.92 14.0117C51.1561 12.6909 51.3923 11.37 51.6284 10.0491C51.9269 8.37811 52.2237 6.70712 52.5239 5.03609C52.8091 3.4464 53.0978 1.8567 53.3798 0.26535C53.4028 0.132599 53.4602 0.0960925 53.5816 0.0960925C54.8558 0.0977514 56.1316 0.099411 57.4058 0.0927734C57.5764 0.0927734 57.6075 0.185699 57.6305 0.316791C57.8027 1.28754 57.9748 2.25827 58.1503 3.22902C58.393 4.57644 58.6439 5.9222 58.8836 7.26964C59.2457 9.30573 59.5983 11.3418 59.9592 13.3778C60.2297 14.9012 60.5037 16.4228 60.7772 17.9462C60.8235 18.2017 60.8675 18.4589 60.9215 18.7128C60.9479 18.8389 60.8969 18.8737 60.7854 18.8737C59.9346 18.8671 59.082 18.8571 58.2307 18.8555C58.0634 18.8555 57.9995 18.7709 57.9748 18.6265C57.7404 17.3056 57.5042 15.9848 57.2763 14.6638C57.2516 14.5212 57.1746 14.5029 57.0647 14.5029C56.6761 14.5013 56.2874 14.498 55.8988 14.498C55.251 14.4963 54.6032 14.498 53.9555 14.4913C53.7931 14.4896 53.7308 14.551 53.7046 14.712C53.5553 15.6163 53.3946 16.5191 53.2372 17.4234C53.1634 17.8482 53.0896 18.273 53.0043 18.6962C52.9929 18.7542 52.9174 18.8455 52.8699 18.8455C51.9695 18.8538 51.0709 18.8505 50.1706 18.8488C50.1459 18.8488 50.1197 18.8339 50.0656 18.8173H50.064ZM55.5265 4.91496C55.0821 7.1402 54.677 9.35216 54.2966 11.5774C55.0345 11.5774 55.7167 11.5774 56.3973 11.5774C56.7171 11.5774 56.7203 11.5774 56.6662 11.2688C56.3497 9.45505 56.0315 7.64299 55.7118 5.82928C55.6577 5.52395 55.5888 5.22029 55.5265 4.91496Z" fill="white"/>
<path d="M33.3794 18.8407C33.2778 18.8473 33.2122 18.8573 33.1449 18.8573C32.32 18.8573 31.4952 18.849 30.6703 18.8573C30.485 18.859 30.4276 18.786 30.3981 18.6167C30.1718 17.3157 29.934 16.0147 29.7077 14.7138C29.6782 14.5429 29.6044 14.4914 29.4354 14.4931C28.4204 14.5014 27.4036 14.5031 26.3885 14.4947C26.2213 14.4947 26.1672 14.5512 26.1409 14.7072C25.913 16.0297 25.6752 17.3506 25.4472 18.6714C25.4227 18.8158 25.3521 18.8789 25.2193 18.8772C24.3469 18.8689 23.4744 18.859 22.602 18.8473C22.5774 18.8473 22.5511 18.8307 22.5085 18.8175C22.5364 18.62 22.5594 18.4242 22.5938 18.2317C22.8398 16.8494 23.089 15.4689 23.3367 14.0865C23.7286 11.8895 24.1189 9.69249 24.5125 7.49544C24.8307 5.7166 25.152 3.93774 25.4718 2.15888C25.585 1.52499 25.7014 0.892757 25.8096 0.257213C25.831 0.136078 25.8818 0.0962524 25.9966 0.0962524C27.2708 0.097912 28.5467 0.097912 29.8208 0.0962524C29.975 0.0962524 30.0389 0.174244 30.0635 0.315292C30.239 1.32088 30.4145 2.32481 30.5932 3.3304C30.7343 4.12525 30.8835 4.91844 31.0262 5.71494C31.2099 6.73877 31.3886 7.76429 31.5706 8.78982C31.7084 9.56472 31.8477 10.3397 31.9855 11.1146C32.1872 12.2397 32.3889 13.3647 32.589 14.4914C32.8251 15.819 33.0597 17.1465 33.2958 18.474C33.3154 18.5868 33.3466 18.698 33.3794 18.8424V18.8407ZM27.9514 4.88359C27.9399 4.88193 27.9268 4.88027 27.9153 4.87695C27.8989 4.93337 27.8792 4.98979 27.8693 5.04787C27.7529 5.70167 27.6398 6.35544 27.525 7.00928C27.2659 8.46456 27.0084 9.91984 26.7427 11.3735C26.7132 11.5344 26.7493 11.5792 26.91 11.5776C27.5643 11.5709 28.2186 11.5726 28.873 11.5743C29.1469 11.5743 29.155 11.5726 29.1059 11.3004C28.85 9.88 28.5909 8.45957 28.3351 7.03748C28.2056 6.31898 28.0809 5.60045 27.953 4.88193L27.9514 4.88359Z" fill="white"/>
<path d="M8.13188 4.60839C7.71539 4.60839 7.30048 4.60507 6.88393 4.61005C6.74457 4.61171 6.69041 4.56525 6.65268 4.42088C6.57563 4.12551 6.50182 3.81686 6.35589 3.55468C6.06068 3.02036 5.57365 2.76481 4.96689 2.77145C4.55527 2.77643 4.15022 2.83782 3.79928 3.08342C3.53526 3.26761 3.36635 3.51983 3.30895 3.83678C3.18924 4.4856 3.26959 5.10123 3.60249 5.68036C4.14694 6.62619 4.88818 7.39617 5.70976 8.09311C6.63138 8.87466 7.5809 9.62142 8.43689 10.481C9.61109 11.6591 10.1604 13.0845 9.99813 14.729C9.80132 16.7252 8.54515 18.3332 6.45429 18.8327C5.21615 19.1281 3.98787 19.0434 2.81698 18.5008C1.61821 17.9449 0.87042 16.9709 0.370248 15.7744C0.145581 15.2368 0.0963843 14.661 0.00454982 14.0951C-0.0249684 13.9142 0.0406276 13.8379 0.235776 13.8396C1.02621 13.8495 1.81664 13.8445 2.60707 13.8479C2.91046 13.8479 2.90061 13.8545 2.94325 14.1416C3.07772 15.0509 3.47294 15.781 4.40112 16.0665C5.21943 16.3187 6.16237 16.1362 6.72156 15.4359C7.22666 14.8037 7.17585 13.5558 6.75765 13.0348C6.4297 12.6266 6.09841 12.2101 5.71141 11.8599C4.83242 11.0617 3.89932 10.3217 3.02361 9.52019C2.1315 8.70544 1.36895 7.78115 0.849096 6.66769C0.229216 5.34018 0.116063 3.99608 0.653952 2.62542C1.20332 1.23983 2.24301 0.4035 3.6812 0.141317C4.62251 -0.0296 5.60317 -0.0909971 6.53462 0.225946C7.91542 0.693892 8.83543 1.66464 9.3028 3.04359C9.45037 3.47835 9.48317 3.95128 9.56843 4.40761C9.5963 4.56027 9.53399 4.61503 9.37984 4.61171C8.96499 4.60342 8.54844 4.60839 8.13188 4.60839Z" fill="white"/>
</g>
</g>
<defs>
<clipPath id="clip0_976_216">
<rect width="71" height="19" fill="white"/>
</clipPath>
</defs>
</svg>
