<svg width="32" height="32" viewBox="0 0 59 59" fill="none"
    xmlns="http://www.w3.org/2000/svg">
    <path d="M0 29.5V59H29.5H59L58.9905 29.5095L58.9763 0.023674L29.4905 0.00946808L0 -3.8147e-06V29.5ZM58.3844 29.5V58.3844H29.5H0.61557V29.5V0.615566H29.5H58.3844V29.5Z" fill="white"></path>
    <path d="M32.2948 13.6137C32.2948 17.6859 32.2853 18.3299 32.219 18.6471C32.1101 19.1775 31.9065 19.5752 31.5656 19.9161C31.0636 20.4133 30.4954 20.617 29.5721 20.617C28.9139 20.6217 28.6156 20.5601 28.1657 20.3281C26.9156 19.6794 26.6836 18.0458 27.5833 16.2417C27.7774 15.8581 28.2225 15.1668 28.4877 14.8353L28.6108 14.6838L28.4261 14.5938C28.3267 14.5417 27.1713 13.9309 25.8597 13.2396C24.5481 12.5483 23.4542 11.98 23.4353 11.98C23.3643 11.98 22.905 12.5672 22.5309 13.1354C21.7212 14.3713 21.2335 15.574 20.9446 17.023C20.8783 17.3497 20.8594 17.6812 20.8594 18.4672C20.8641 19.4142 20.8688 19.5231 20.9967 20.0535C21.4844 22.1511 22.6729 23.8463 24.5054 25.0727C27.5265 27.0994 31.6413 27.1183 34.6387 25.1248C36.5375 23.8558 37.8018 22.0091 38.2942 19.7741L38.4221 19.2011L38.4363 14.073L38.4552 8.94954H35.3726H32.2948V13.6137Z" fill="white"></path>
    <path d="M40.7697 15.5077V22.0659L44.572 22.0564L48.3696 22.0422L48.3838 15.4935L48.3932 8.94955H44.5814H40.7697V15.5077Z" fill="white"></path>
    <path d="M41.6434 24.798C40.6301 25.7497 39.6168 26.692 39.399 26.8909L39.0012 27.2603L39.4227 27.4875C39.953 27.7764 40.8906 28.4062 41.3688 28.7992C42.7609 29.9261 43.5186 31.1194 43.528 32.199C43.5328 32.5399 43.5138 32.6394 43.4191 32.8383C43.2676 33.1366 42.993 33.3118 42.5668 33.3828C42.3916 33.4065 41.402 33.4302 40.2608 33.4302H38.2578V36.3423V39.2544L43.315 39.2449L48.3674 39.2307L48.3816 33.6243L48.391 28.0131L48.1969 27.6864C47.5292 26.5689 46.1892 25.0916 44.8965 24.0546C44.5556 23.7847 43.7269 23.1928 43.5849 23.1217C43.4996 23.0791 43.2676 23.278 41.6434 24.798Z" fill="white"></path>
    <path d="M18.3716 25.9628C18.3716 27.3218 18.3527 27.9847 18.3006 28.4346C17.988 31.091 16.8232 32.7862 14.8676 33.4207C14.1384 33.6622 13.9821 33.6764 12.2301 33.7001L10.5586 33.7237V36.4891V39.2544H15.5021H20.4503L20.938 38.8898C21.511 38.4636 22.3112 37.7013 22.8132 37.0999C24.2953 35.3337 25.2991 32.8477 25.7348 29.8646C25.8247 29.2348 25.962 27.7101 25.9336 27.6343C25.9194 27.6012 25.7537 27.516 25.5643 27.4402C23.997 26.8341 22.458 25.7497 21.4021 24.5044L21.0612 24.1019H19.7164H18.3716V25.9628Z" fill="white"></path>
    <path d="M35.5609 26.4505C35.149 26.7347 33.7474 27.4212 33.217 27.6012C32.6488 27.7906 31.948 27.9658 31.3703 28.0558C30.8731 28.1363 29.481 28.2262 29.1827 28.1931C29.0833 28.1836 28.8465 28.1694 28.6618 28.1552L28.3162 28.1315V33.6953V39.2544L32.1185 39.2449L35.9161 39.2307L35.9303 32.7294C35.935 29.159 35.9255 26.2327 35.9066 26.2375C35.8829 26.2375 35.7314 26.3322 35.5609 26.4505Z" fill="white"></path>
    <path d="M13.1691 41.4892C13.1454 41.5508 12.5156 43.1323 11.7722 45.0027C11.0288 46.8778 10.418 48.4262 10.418 48.4499C10.418 48.4689 10.9767 48.4878 11.6633 48.4878H12.9087L13.0697 48.0143L13.2354 47.5408L14.5328 47.5502L15.8302 47.5644L15.9818 48.0143L16.1333 48.4641L17.3928 48.4783L18.6524 48.4878L18.5388 48.1942C18.4772 48.0285 17.89 46.5416 17.2366 44.8891C16.5831 43.2365 16.0007 41.7686 15.9486 41.6313L15.8587 41.3851H14.5328H13.2117L13.1691 41.4892ZM14.8927 44.7707C15.0537 45.2632 15.2052 45.7083 15.2241 45.7509C15.2573 45.8314 15.2052 45.8361 14.5423 45.8361C14.1493 45.8361 13.8273 45.8266 13.8273 45.8172C13.8273 45.803 13.9551 45.4289 14.1114 44.979C14.2676 44.5292 14.4239 44.0225 14.4523 43.8521C14.5091 43.5443 14.5091 43.5443 14.5518 43.7053C14.5754 43.7953 14.727 44.2735 14.8927 44.7707Z" fill="white"></path>
    <path d="M19.1797 44.9364V48.4878L22.0113 48.4783L24.8382 48.4641L24.8524 47.4319L24.8619 46.4043H23.2519H21.642V43.8947V41.3851H20.4108H19.1797V44.9364Z" fill="white"></path>
    <path d="M27.1713 41.4232L25.5234 41.4327V44.9651V48.4976L27.5501 48.4739C29.6762 48.4502 29.8656 48.436 30.5096 48.2087C31.2056 47.9672 31.8733 47.4369 32.1905 46.8781C32.7635 45.8601 32.8061 44.2691 32.2852 43.2084C31.7407 42.0862 30.68 41.5037 29.0275 41.4185C28.9091 41.4138 28.0757 41.4138 27.1713 41.4232ZM29.1648 43.4262C29.6809 43.5351 29.984 43.9234 30.0739 44.6005C30.1118 44.8752 30.1118 45.074 30.0692 45.325C29.9366 46.201 29.5436 46.4993 28.5208 46.4993H28.0331V44.9367V43.3741H28.4829C28.7244 43.3741 29.0369 43.3978 29.1648 43.4262Z" fill="white"></path>
    <path d="M33.9034 44.8938C33.1363 46.8258 32.5018 48.4215 32.4923 48.4452C32.4828 48.4689 33.0274 48.4878 33.7329 48.4878H34.9925L35.0351 48.3789C35.054 48.3221 35.1298 48.109 35.2008 47.9054L35.3334 47.5408H36.6214H37.9046L38.0703 48.0143L38.236 48.4878H39.4767C40.1633 48.4878 40.722 48.4689 40.722 48.4499C40.722 48.431 40.097 46.8352 39.3346 44.9128L37.9519 41.4087L36.6261 41.3945L35.3003 41.3851L33.9034 44.8938ZM37.0712 45.069C37.2038 45.4431 37.3127 45.7698 37.3127 45.7935C37.3127 45.8172 37.0002 45.8361 36.6072 45.8361H35.9016L36.1431 45.159C36.2757 44.7896 36.4367 44.2782 36.4982 44.0273L36.6166 43.5632L36.7255 43.9799C36.7824 44.2072 36.9386 44.6997 37.0712 45.069Z" fill="white"></path>
    <path d="M41.266 41.4419C41.2518 41.475 41.247 43.0708 41.2518 44.9838L41.266 48.4641L42.5113 48.4783L43.7519 48.4878V47.4461V46.4043H44.036H44.3202L45.0304 47.3608C45.4234 47.8912 45.7738 48.3599 45.8117 48.4026C45.8733 48.4783 46.0011 48.4878 47.2086 48.4878C47.9804 48.4878 48.5344 48.4689 48.5344 48.4452C48.5344 48.4215 48.1177 47.8722 47.6111 47.2235C47.1044 46.5795 46.6877 46.035 46.6877 46.0208C46.6877 46.0066 46.773 45.9498 46.8771 45.8882C47.5448 45.5141 47.9189 44.7944 47.9189 43.8994C47.9189 43.1465 47.7437 42.673 47.2986 42.2232C46.8724 41.797 46.2568 41.5413 45.3903 41.4324C44.8079 41.3614 41.2944 41.3709 41.266 41.4419ZM45.1109 43.4212C45.324 43.549 45.4234 43.7242 45.4234 43.9657C45.4234 44.2072 45.324 44.3824 45.1109 44.5103C44.9831 44.5908 44.8694 44.605 44.358 44.605H43.7519V43.9657V43.3265H44.358C44.8694 43.3265 44.9831 43.3407 45.1109 43.4212Z" fill="white"></path>
</svg>