<svg width="40" height="40" viewBox="0 0 40 40" fill="none" xmlns="http://www.w3.org/2000/svg">
<path d="M27.4611 14.1925C26.5339 14.1943 25.78 13.4436 25.7782 12.5164C25.7764 11.5892 26.5271 10.8353 27.4547 10.8335C28.3823 10.8317 29.1362 11.5829 29.138 12.51C29.1394 13.4372 28.3887 14.1907 27.4611 14.1925Z" fill="url(#paint0_linear_1019_370)"/>
<path fill-rule="evenodd" clip-rule="evenodd" d="M20.0134 27.1878C16.0439 27.1956 12.8193 23.984 12.8116 20.0136C12.8039 16.0441 16.0162 12.8189 19.9857 12.8112C23.9561 12.8035 27.1812 16.0169 27.1889 19.9859C27.1966 23.9564 23.9833 27.1801 20.0134 27.1878ZM19.9907 15.3337C17.4143 15.3383 15.3286 17.4317 15.3331 20.0086C15.3381 22.586 17.432 24.6712 20.0084 24.6663C22.5858 24.6613 24.6714 22.5683 24.6664 19.9909C24.6614 17.4135 22.5676 15.3288 19.9907 15.3337Z" fill="url(#paint1_linear_1019_370)"/>
<path fill-rule="evenodd" clip-rule="evenodd" d="M10.8057 6.75423C11.6948 6.40586 12.7122 6.16726 14.2018 6.09695C15.6951 6.02528 16.1718 6.00895 19.973 6.00169C23.7751 5.99444 24.2518 6.00895 25.7451 6.07517C27.2352 6.13958 28.2531 6.37456 29.1439 6.7193C30.0656 7.07447 30.8476 7.55258 31.6269 8.3287C32.4062 9.10572 32.8861 9.88503 33.2458 10.8054C33.5938 11.6954 33.8323 12.7119 33.9031 14.2025C33.9739 15.6953 33.9911 16.1715 33.9984 19.9732C34.0056 23.7745 33.9902 24.2517 33.9249 25.7458C33.86 27.235 33.6255 28.2534 33.2808 29.1438C32.9247 30.0655 32.4475 30.8475 31.6714 31.6268C30.8953 32.4066 30.1151 32.8861 29.1947 33.2462C28.3048 33.5937 27.2882 33.8323 25.7986 33.9035C24.3054 33.9743 23.8286 33.991 20.0261 33.9983C16.2254 34.0056 15.7486 33.991 14.2554 33.9253C12.7653 33.86 11.747 33.6254 10.8565 33.2812C9.93483 32.9246 9.15282 32.4479 8.37353 31.6713C7.5938 30.8947 7.11345 30.115 6.7542 29.1946C6.40583 28.3051 6.16812 27.2881 6.09692 25.7989C6.02571 24.3052 6.00893 23.828 6.00168 20.0268C5.9944 16.2251 6.00938 15.7488 6.07469 14.2555C6.14047 12.765 6.37408 11.7471 6.71882 10.8557C7.07488 9.93446 7.55207 9.1529 8.32909 8.37315C9.1052 7.59386 9.88539 7.11302 10.8057 6.75423ZM11.7651 30.9292C12.2591 31.1193 13.0003 31.3461 14.3652 31.4055C15.8421 31.4694 16.2843 31.4835 20.0216 31.4762C23.7601 31.4694 24.2024 31.4536 25.6789 31.3842C27.0424 31.3193 27.7836 31.0898 28.2762 30.8974C28.9298 30.642 29.3952 30.3368 29.8842 29.8473C30.3732 29.3561 30.6757 28.8893 30.9288 28.2357C31.1193 27.7412 31.3457 26.9996 31.4051 25.6347C31.47 24.1587 31.4836 23.7159 31.4763 19.9778C31.4695 16.2405 31.4536 15.7978 31.3834 14.3213C31.3189 12.9573 31.0899 12.2161 30.8971 11.7239C30.6417 11.0694 30.3373 10.6049 29.8466 10.1155C29.3557 9.62601 28.889 9.32435 28.2345 9.07125C27.7414 8.88028 26.9993 8.65438 25.6353 8.59496C24.1584 8.5301 23.7157 8.51693 19.9776 8.5242C16.2403 8.53146 15.7981 8.54642 14.3216 8.61628C12.9572 8.68114 12.2169 8.91021 11.7234 9.103C11.0702 9.35838 10.6048 9.66184 10.1154 10.1531C9.62682 10.6443 9.32428 11.1102 9.07118 11.7652C8.88159 12.2587 8.6534 13.0008 8.5949 14.3648C8.53048 15.8418 8.51688 16.2845 8.52414 20.0218C8.53095 23.7599 8.54681 24.2027 8.61622 25.6782C8.68018 27.0431 8.91104 27.7834 9.10293 28.2774C9.3583 28.9301 9.66268 29.3956 10.153 29.885C10.6443 30.3726 11.111 30.6761 11.7651 30.9292Z" fill="url(#paint2_linear_1019_370)"/>
<defs>
<linearGradient id="paint0_linear_1019_370" x1="20" y1="6" x2="20" y2="34" gradientUnits="userSpaceOnUse">
<stop stop-color="#F4BEB2"/>
<stop offset="0.548077" stop-color="#F9C6BA"/>
<stop offset="0.975962" stop-color="#FFDCD4"/>
</linearGradient>
<linearGradient id="paint1_linear_1019_370" x1="20" y1="6" x2="20" y2="34" gradientUnits="userSpaceOnUse">
<stop stop-color="#F4BEB2"/>
<stop offset="0.548077" stop-color="#F9C6BA"/>
<stop offset="0.975962" stop-color="#FFDCD4"/>
</linearGradient>
<linearGradient id="paint2_linear_1019_370" x1="20" y1="6" x2="20" y2="34" gradientUnits="userSpaceOnUse">
<stop stop-color="#F4BEB2"/>
<stop offset="0.548077" stop-color="#F9C6BA"/>
<stop offset="0.975962" stop-color="#FFDCD4"/>
</linearGradient>
</defs>
</svg>
