<svg width="40" height="40" viewBox="0 0 40 40" fill="none" xmlns="http://www.w3.org/2000/svg">
<path d="M31.4672 6H8.53283C7.134 6 6 7.134 6 8.53283V31.4671C6 32.866 7.134 34 8.53283 34H31.4671C32.866 34 34 32.866 34 31.4671V8.53283C34 7.134 32.866 6 31.4672 6ZM14.6644 30.177C14.6644 30.5841 14.3344 30.9141 13.9273 30.9141H10.7897C10.3826 30.9141 10.0526 30.5841 10.0526 30.177V17.0243C10.0526 16.6172 10.3826 16.2872 10.7897 16.2872H13.9273C14.3344 16.2872 14.6644 16.6172 14.6644 17.0243V30.177ZM12.3585 15.0474C10.7123 15.0474 9.37774 13.7128 9.37774 12.0666C9.37774 10.4204 10.7123 9.08586 12.3585 9.08586C14.0047 9.08586 15.3392 10.4204 15.3392 12.0666C15.3392 13.7128 14.0048 15.0474 12.3585 15.0474ZM31.0615 30.2364C31.0615 30.6107 30.758 30.9141 30.3837 30.9141H27.0169C26.6426 30.9141 26.3391 30.6107 26.3391 30.2364V24.067C26.3391 23.1467 26.6091 20.0341 23.934 20.0341C21.859 20.0341 21.4381 22.1646 21.3536 23.1207V30.2364C21.3536 30.6107 21.0502 30.9141 20.6759 30.9141H17.4195C17.0453 30.9141 16.7418 30.6107 16.7418 30.2364V16.9649C16.7418 16.5907 17.0453 16.2872 17.4195 16.2872H20.6759C21.0501 16.2872 21.3536 16.5907 21.3536 16.9649V18.1124C22.123 16.9577 23.2665 16.0665 25.7011 16.0665C31.0923 16.0665 31.0615 21.1033 31.0615 23.8707V30.2364Z" fill="#0077B7"/>
<path d="M31.4672 6H8.53283C7.134 6 6 7.134 6 8.53283V31.4671C6 32.866 7.134 34 8.53283 34H31.4671C32.866 34 34 32.866 34 31.4671V8.53283C34 7.134 32.866 6 31.4672 6ZM14.6644 30.177C14.6644 30.5841 14.3344 30.9141 13.9273 30.9141H10.7897C10.3826 30.9141 10.0526 30.5841 10.0526 30.177V17.0243C10.0526 16.6172 10.3826 16.2872 10.7897 16.2872H13.9273C14.3344 16.2872 14.6644 16.6172 14.6644 17.0243V30.177ZM12.3585 15.0474C10.7123 15.0474 9.37774 13.7128 9.37774 12.0666C9.37774 10.4204 10.7123 9.08586 12.3585 9.08586C14.0047 9.08586 15.3392 10.4204 15.3392 12.0666C15.3392 13.7128 14.0048 15.0474 12.3585 15.0474ZM31.0615 30.2364C31.0615 30.6107 30.758 30.9141 30.3837 30.9141H27.0169C26.6426 30.9141 26.3391 30.6107 26.3391 30.2364V24.067C26.3391 23.1467 26.6091 20.0341 23.934 20.0341C21.859 20.0341 21.4381 22.1646 21.3536 23.1207V30.2364C21.3536 30.6107 21.0502 30.9141 20.6759 30.9141H17.4195C17.0453 30.9141 16.7418 30.6107 16.7418 30.2364V16.9649C16.7418 16.5907 17.0453 16.2872 17.4195 16.2872H20.6759C21.0501 16.2872 21.3536 16.5907 21.3536 16.9649V18.1124C22.123 16.9577 23.2665 16.0665 25.7011 16.0665C31.0923 16.0665 31.0615 21.1033 31.0615 23.8707V30.2364Z" fill="url(#paint0_linear_1019_372)"/>
<defs>
<linearGradient id="paint0_linear_1019_372" x1="20" y1="6" x2="20" y2="34" gradientUnits="userSpaceOnUse">
<stop stop-color="#F4BEB2"/>
<stop offset="0.548077" stop-color="#F9C6BA"/>
<stop offset="0.975962" stop-color="#FFDCD4"/>
</linearGradient>
</defs>
</svg>
