<svg width="32" height="29" viewBox="0 0 32 29" fill="none" xmlns="http://www.w3.org/2000/svg">
<path fill-rule="evenodd" clip-rule="evenodd" d="M25.5129 4.14331C26.8118 3.59638 28.2044 4.69477 27.975 6.08541L25.266 22.5109C25.0047 24.0946 23.2653 25.0034 21.8123 24.2141C20.5965 23.5537 18.7926 22.5373 17.1668 21.475C16.355 20.9445 13.8693 19.2435 14.1748 18.0327C14.4361 16.9974 18.6149 13.1074 21.0029 10.7941C21.9409 9.88535 21.5137 9.36039 20.4059 10.1971C17.6578 12.2726 13.2458 15.4282 11.7868 16.3163C10.4995 17.0998 9.82735 17.2335 9.02564 17.0998C7.56165 16.8559 6.20435 16.4781 5.09622 16.0188C3.59851 15.3979 3.67146 13.3397 5.09521 12.7403L25.5129 4.14331Z" fill="url(#paint0_linear_842_151)"/>
<defs>
<linearGradient id="paint0_linear_842_151" x1="16" y1="4" x2="16" y2="24.5037" gradientUnits="userSpaceOnUse">
<stop stop-color="#F4BEB2"/>
<stop offset="0.548077" stop-color="#F9C6BA"/>
<stop offset="0.975962" stop-color="#FFDCD4"/>
</linearGradient>
</defs>
</svg>
