<svg width="40" height="40" viewBox="0 0 40 40" fill="none" xmlns="http://www.w3.org/2000/svg">
<path fill-rule="evenodd" clip-rule="evenodd" d="M36.2826 9.25134C36.8468 9.81349 37.252 10.5125 37.4576 11.2784C38.2179 14.1052 38.2179 20.0002 38.2179 20.0002C38.2179 20.0002 38.2179 25.8952 37.4576 28.722C37.252 29.4879 36.8468 30.1869 36.2826 30.749C35.7184 31.3112 35.015 31.7167 34.2427 31.9252C31.3997 32.682 20.0361 32.682 20.0361 32.682C20.0361 32.682 8.67243 32.682 5.82945 31.9252C5.05717 31.7167 4.35373 31.3112 3.78953 30.749C3.22533 30.1869 2.82017 29.4879 2.61458 28.722C1.85425 25.8952 1.85425 20.0002 1.85425 20.0002C1.85425 20.0002 1.85425 14.1052 2.61458 11.2784C2.82017 10.5125 3.22533 9.81349 3.78953 9.25134C4.35373 8.6892 5.05717 8.28361 5.82945 8.07518C8.67243 7.31836 20.0361 7.31836 20.0361 7.31836C20.0361 7.31836 31.3997 7.31836 34.2427 8.07518C35.015 8.28361 35.7184 8.6892 36.2826 9.25134ZM25.8212 20.0002L16.3171 14.6473V25.3532L25.8212 20.0002Z" fill="url(#paint0_linear_1019_368)"/>
<defs>
<linearGradient id="paint0_linear_1019_368" x1="20.0361" y1="7.31836" x2="20.0361" y2="32.682" gradientUnits="userSpaceOnUse">
<stop stop-color="#F4BEB2"/>
<stop offset="0.548077" stop-color="#F9C6BA"/>
<stop offset="0.975962" stop-color="#FFDCD4"/>
</linearGradient>
</defs>
</svg>
